<svg width="489" height="309" viewBox="0 0 489 309" fill="none" xmlns="http://www.w3.org/2000/svg">
<mask id="mask0" mask-type="alpha" maskUnits="userSpaceOnUse" x="0" y="0" width="489" height="309">
<rect width="489" height="309" fill="#C4C4C4"/>
</mask>
<g mask="url(#mask0)">
<mask id="mask1" mask-type="alpha" maskUnits="userSpaceOnUse" x="0" y="-486" width="1303" height="795">
<rect y="-486" width="1303" height="795" fill="#C4C4C4"/>
</mask>
<g mask="url(#mask1)">
<rect x="2.99902" y="-485" width="1296" height="793" fill="black" stroke="black" stroke-width="2"/>
<ellipse cx="44" cy="256.5" rx="16" ry="16.5" fill="#FB2900"/>
<ellipse rx="3.67174" ry="3.6891" transform="matrix(0.971667 -0.236352 0.237508 0.971386 437.752 81.0517)" fill="white"/>
<ellipse rx="3.67174" ry="3.6891" transform="matrix(0.971667 -0.236352 0.237508 0.971386 485.621 167.872)" fill="white"/>
<ellipse rx="3.67174" ry="3.6891" transform="matrix(0.504933 -0.863159 0.863758 0.503906 482.04 74.0276)" fill="white"/>
<ellipse rx="3.67174" ry="3.6891" transform="matrix(0.971667 -0.236352 0.237508 0.971386 405.97 134.165)" fill="white"/>
<ellipse rx="3.67542" ry="3.68543" transform="matrix(-0.65725 0.753673 -0.751014 -0.660286 220.992 72.364)" fill="white"/>
<ellipse rx="3.67542" ry="3.68543" transform="matrix(-0.65725 0.753673 -0.751014 -0.660286 178.176 227.051)" fill="white"/>
<ellipse rx="3.68101" ry="3.67985" transform="matrix(0.378272 -0.925694 0.923847 0.382763 181.875 7.33501)" fill="white"/>
<ellipse rx="3.68101" ry="3.67985" transform="matrix(0.378272 -0.925694 0.923847 0.382763 145.484 188.302)" fill="white"/>
<ellipse rx="3.67867" ry="3.68219" transform="matrix(0.947244 0.320515 -0.315991 0.948762 79.0642 293.766)" fill="white"/>
<ellipse rx="1.22391" ry="1.2297" transform="matrix(0.971667 -0.236352 0.237508 0.971386 382.311 109.544)" fill="white"/>
<ellipse rx="1.22514" ry="1.22848" transform="matrix(-0.65725 0.753673 -0.751014 -0.660286 254.408 78.9052)" fill="white"/>
<ellipse rx="1.22514" ry="1.22848" transform="matrix(-0.65725 0.753673 -0.751014 -0.660286 211.592 233.593)" fill="white"/>
<ellipse rx="1.227" ry="1.22662" transform="matrix(0.378272 -0.925694 0.923847 0.382763 148.177 11.9723)" fill="white"/>
<ellipse rx="1.227" ry="1.22662" transform="matrix(0.378272 -0.925694 0.923847 0.382763 111.789 192.939)" fill="white"/>
<ellipse rx="1.22622" ry="1.2274" transform="matrix(0.947244 0.320515 -0.315991 0.948762 72.1106 260.311)" fill="white"/>
<ellipse rx="1.22391" ry="1.2297" transform="matrix(0.971667 -0.236352 0.237508 0.971386 406.054 113.894)" fill="white"/>
<ellipse rx="1.22514" ry="1.22848" transform="matrix(-0.65725 0.753673 -0.751014 -0.660286 232.533 89.0341)" fill="white"/>
<ellipse rx="1.22514" ry="1.22848" transform="matrix(-0.65725 0.753673 -0.751014 -0.660286 189.717 243.724)" fill="white"/>
<ellipse rx="1.227" ry="1.22662" transform="matrix(0.378272 -0.925694 0.923847 0.382763 129.21 176.248)" fill="white"/>
<ellipse rx="1.22622" ry="1.2274" transform="matrix(0.947244 0.320515 -0.315991 0.948762 89.9163 276.706)" fill="white"/>
<ellipse rx="1.22391" ry="1.2297" transform="matrix(0.971667 -0.236352 0.237508 0.971386 363.035 30.706)" fill="white"/>
<ellipse rx="1.22391" ry="1.2297" transform="matrix(0.971667 -0.236352 0.237508 0.971386 343.963 189.745)" fill="white"/>
<ellipse rx="1.22391" ry="1.2297" transform="matrix(0.971667 -0.236352 0.237508 0.971386 331.902 233.175)" fill="white"/>
<ellipse rx="1.22391" ry="1.2297" transform="matrix(0.971667 -0.236352 0.237508 0.971386 279.954 154.69)" fill="white"/>
<ellipse rx="1.22391" ry="1.2297" transform="matrix(0.971667 -0.236352 0.237508 0.971386 209.1 194.706)" fill="white"/>
<ellipse rx="1.22391" ry="1.2297" transform="matrix(0.971667 -0.236352 0.237508 0.971386 244.192 183.64)" fill="white"/>
<ellipse rx="1.22391" ry="1.2297" transform="matrix(0.971667 -0.236352 0.237508 0.971386 292.511 278.19)" fill="white"/>
<ellipse rx="1.22391" ry="1.2297" transform="matrix(0.971667 -0.236352 0.237508 0.971386 195.119 271.509)" fill="white"/>
<ellipse rx="1.22391" ry="1.2297" transform="matrix(0.971667 -0.236352 0.237508 0.971386 378.22 237.097)" fill="white"/>
<ellipse rx="1.22391" ry="1.2297" transform="matrix(0.971667 -0.236352 0.237508 0.971386 411.1 186.069)" fill="white"/>
<ellipse rx="1.22391" ry="1.2297" transform="matrix(0.971667 -0.236352 0.237508 0.971386 429.629 158.78)" fill="white"/>
<ellipse rx="1.22514" ry="1.22848" transform="matrix(-0.65725 0.753673 -0.751014 -0.660286 196.967 145.692)" fill="white"/>
<ellipse rx="1.227" ry="1.22662" transform="matrix(0.378272 -0.925694 0.923847 0.382763 190.288 90.5095)" fill="white"/>
<ellipse rx="1.227" ry="1.22662" transform="matrix(0.378272 -0.925694 0.923847 0.382763 153.895 271.476)" fill="white"/>
<ellipse rx="1.22391" ry="1.2297" transform="matrix(0.971667 -0.236352 0.237508 0.971386 311.962 27.9423)" fill="white"/>
<ellipse rx="1.22391" ry="1.2297" transform="matrix(0.971667 -0.236352 0.237508 0.971386 292.888 186.979)" fill="white"/>
<ellipse rx="1.22514" ry="1.22848" transform="matrix(0.0856127 0.996329 -0.996666 0.0815913 488.33 42.3209)" fill="white"/>
<ellipse rx="1.22514" ry="1.22848" transform="matrix(0.0856127 0.996329 -0.996666 0.0815913 460.33 231.321)" fill="white"/>
<ellipse rx="1.22514" ry="1.22848" transform="matrix(-0.65725 0.753673 -0.751014 -0.660286 240.248 118.495)" fill="white"/>
<ellipse rx="1.227" ry="1.22662" transform="matrix(0.378272 -0.925694 0.923847 0.382763 158.125 130.308)" fill="white"/>
<ellipse rx="1.22391" ry="1.2297" transform="matrix(0.971667 -0.236352 0.237508 0.971386 374.844 48.0849)" fill="white"/>
<ellipse rx="1.22514" ry="1.22848" transform="matrix(-0.65725 0.753673 -0.751014 -0.660286 295.707 125.003)" fill="white"/>
<ellipse rx="1.22514" ry="1.22848" transform="matrix(-0.65725 0.753673 -0.751014 -0.660286 252.891 279.69)" fill="white"/>
<ellipse rx="1.227" ry="1.22662" transform="matrix(0.378272 -0.925694 0.923847 0.382763 57.9138 162.646)" fill="white"/>
<ellipse rx="1.22622" ry="1.2274" transform="matrix(0.947244 0.320515 -0.315991 0.948762 98.471 204.448)" fill="white"/>
<ellipse rx="1.22391" ry="1.2297" transform="matrix(0.971667 -0.236352 0.237508 0.971386 440.849 29.0693)" fill="white"/>
<ellipse rx="1.22391" ry="1.2297" transform="matrix(0.971667 -0.236352 0.237508 0.971386 442.279 141.011)" fill="white"/>
<ellipse rx="1.22391" ry="1.2297" transform="matrix(0.971667 -0.236352 0.237508 0.971386 481.332 184.933)" fill="white"/>
<ellipse rx="1.22391" ry="1.2297" transform="matrix(0.971667 -0.236352 0.237508 0.971386 337.747 112.792)" fill="white"/>
<ellipse rx="1.22514" ry="1.22848" transform="matrix(-0.65725 0.753673 -0.751014 -0.660286 288.932 50.5341)" fill="white"/>
<ellipse rx="1.22514" ry="1.22848" transform="matrix(-0.65725 0.753673 -0.751014 -0.660286 246.117 205.22)" fill="white"/>
<ellipse rx="1.22514" ry="1.22848" transform="matrix(-0.65725 0.753673 -0.751014 -0.660286 259.463 223.452)" fill="white"/>
<ellipse rx="1.22514" ry="1.22848" transform="matrix(-0.65725 0.753673 -0.751014 -0.660286 301.728 184.733)" fill="white"/>
<ellipse rx="1.22514" ry="1.22848" transform="matrix(-0.65725 0.753673 -0.751014 -0.660286 278.728 212.733)" fill="white"/>
<ellipse rx="1.22514" ry="1.22848" transform="matrix(-0.65725 0.753673 -0.751014 -0.660286 301.728 188.735)" fill="white"/>
<ellipse rx="1.22514" ry="1.22848" transform="matrix(-0.65725 0.753673 -0.751014 -0.660286 231.338 273.319)" fill="white"/>
<ellipse rx="1.227" ry="1.22662" transform="matrix(0.378272 -0.925694 0.923847 0.382763 124.672 50.0407)" fill="white"/>
<ellipse rx="1.227" ry="1.22662" transform="matrix(0.378272 -0.925694 0.923847 0.382763 88.28 231.006)" fill="white"/>
<ellipse rx="1.22622" ry="1.2274" transform="matrix(0.947244 0.320515 -0.315991 0.948762 32.6252 239.179)" fill="white"/>
<ellipse rx="1.22391" ry="1.2297" transform="matrix(0.971667 -0.236352 0.237508 0.971386 405.054 68.5752)" fill="white"/>
<ellipse rx="1.22514" ry="1.22848" transform="matrix(-0.65725 0.753673 -0.751014 -0.660286 259.305 125.624)" fill="white"/>
<ellipse rx="1.22514" ry="1.22848" transform="matrix(-0.65725 0.753673 -0.751014 -0.660286 216.489 280.311)" fill="white"/>
<ellipse rx="1.227" ry="1.22662" transform="matrix(0.378272 -0.925694 0.923847 0.382763 210.442 12.6442)" fill="white"/>
<ellipse rx="1.227" ry="1.22662" transform="matrix(0.378272 -0.925694 0.923847 0.382763 321.853 76.6618)" fill="white"/>
<ellipse rx="1.227" ry="1.22662" transform="matrix(0.378272 -0.925694 0.923847 0.382763 369.339 85.361)" fill="white"/>
<ellipse rx="1.227" ry="1.22662" transform="matrix(0.378272 -0.925694 0.923847 0.382763 292.143 78.8298)" fill="white"/>
<ellipse rx="1.227" ry="1.22662" transform="matrix(0.378272 -0.925694 0.923847 0.382763 92.1276 150.259)" fill="white"/>
<ellipse rx="1.227" ry="1.22662" transform="matrix(0.378272 -0.925694 0.923847 0.382763 60.4313 89.6305)" fill="white"/>
<ellipse rx="1.227" ry="1.22662" transform="matrix(0.378272 -0.925694 0.923847 0.382763 109.085 103.107)" fill="white"/>
<ellipse rx="1.227" ry="1.22662" transform="matrix(0.378272 -0.925694 0.923847 0.382763 26.7126 199.076)" fill="white"/>
<ellipse rx="1.227" ry="1.22662" transform="matrix(0.378272 -0.925694 0.923847 0.382763 184.314 297.42)" fill="white"/>
<ellipse rx="1.227" ry="1.22662" transform="matrix(0.378272 -0.925694 0.923847 0.382763 243.361 240.031)" fill="white"/>
<ellipse rx="1.22622" ry="1.2274" transform="matrix(0.947244 0.320515 -0.315991 0.948762 113.168 237.929)" fill="white"/>
<ellipse rx="2.44782" ry="2.4594" transform="matrix(0.971667 -0.236352 0.237508 0.971386 381.834 9.67962)" fill="white"/>
<ellipse rx="2.44782" ry="2.4594" transform="matrix(0.971667 -0.236352 0.237508 0.971386 362.761 168.719)" fill="white"/>
<ellipse rx="2.45028" ry="2.45695" transform="matrix(-0.65725 0.753673 -0.751014 -0.660286 236.479 19.0955)" fill="white"/>
<ellipse rx="2.45028" ry="2.45695" transform="matrix(-0.65725 0.753673 -0.751014 -0.660286 193.663 173.783)" fill="white"/>
<ellipse rx="2.45401" ry="2.45323" transform="matrix(0.378272 -0.925694 0.923847 0.382763 184.374 62.8236)" fill="white"/>
<ellipse rx="2.45401" ry="2.45323" transform="matrix(0.378272 -0.925694 0.923847 0.382763 147.985 243.792)" fill="white"/>
<ellipse rx="2.45245" ry="2.45479" transform="matrix(0.947244 0.320515 -0.315991 0.948762 24.0718 299.775)" fill="white"/>
<ellipse rx="2.44782" ry="2.4594" transform="matrix(0.971667 -0.236352 0.237508 0.971386 365.934 119.857)" fill="white"/>
<ellipse rx="2.45028" ry="2.45695" transform="matrix(-0.65725 0.753673 -0.751014 -0.660286 261.875 61.0018)" fill="white"/>
<ellipse rx="2.45028" ry="2.45695" transform="matrix(-0.65725 0.753673 -0.751014 -0.660286 219.06 215.689)" fill="white"/>
<ellipse rx="2.45028" ry="2.45695" transform="matrix(-0.65725 0.753673 -0.751014 -0.660286 272.166 237.31)" fill="white"/>
<ellipse rx="2.45401" ry="2.45323" transform="matrix(0.378272 -0.925694 0.923847 0.382763 146.881 31.3529)" fill="white"/>
<ellipse rx="2.45401" ry="2.45323" transform="matrix(-0.403147 -0.915135 0.917082 -0.398698 486.239 131.223)" fill="white"/>
<ellipse rx="2.45401" ry="2.45323" transform="matrix(-0.403147 -0.915135 0.917082 -0.398698 462.239 42.2234)" fill="white"/>
<ellipse rx="2.45401" ry="2.45323" transform="matrix(0.378272 -0.925694 0.923847 0.382763 110.492 212.32)" fill="white"/>
<circle cx="342" cy="177.959" r="66" transform="rotate(90 342 177.959)" fill="#FB2900"/>
<path fill-rule="evenodd" clip-rule="evenodd" d="M405.777 194.847C400.665 201.674 386.916 214.891 394.972 199.118C395.8 197.496 401.168 191.315 407.695 183.832C407.864 181.906 407.95 179.955 407.95 177.984C407.95 164.075 403.647 151.17 396.3 140.529C390.394 146.185 384.658 153.3 379.633 159.533C371.954 169.058 365.935 176.524 363.508 173.577C361.52 171.162 368.617 162.688 377.22 152.413C381.97 146.741 387.179 140.52 391.573 134.467C387.046 129.31 381.729 124.864 375.81 121.32C372.683 122.472 369.426 124.156 366.194 126.487C357.312 132.893 347.973 142.007 340.103 149.688C332.14 157.46 325.681 163.764 322.722 164.307C307.867 167.034 340.017 139.516 366.978 116.895C359.259 113.73 350.809 111.984 341.95 111.984C307.355 111.984 278.976 138.602 276.177 172.475C278.998 169.866 282.679 165.994 287.188 159.717C291.959 153.072 323.256 119.442 314.995 135.615C314.138 137.293 306.37 146.298 296.91 157.266L296.91 157.266C290.188 165.059 282.611 173.843 276.053 181.691C277.014 199.058 284.69 214.634 296.527 225.867C303.767 219.886 310.928 211.004 317.038 203.425L317.038 203.425C324.718 193.899 330.737 186.434 333.164 189.381C335.152 191.795 328.055 200.27 319.451 210.545C313.953 217.111 307.84 224.411 303.088 231.335C308.879 235.561 315.384 238.866 322.387 241.037C325.041 239.924 327.768 238.425 330.478 236.471C339.36 230.064 348.699 220.95 356.568 213.27C364.532 205.498 370.991 199.194 373.95 198.65C388.22 196.031 359.114 221.321 332.901 243.369C335.859 243.775 338.88 243.984 341.95 243.984C372.573 243.984 398.324 223.129 405.777 194.847Z" fill="#FFD801"/>
<ellipse rx="1.22391" ry="1.2297" transform="matrix(0.971667 -0.236352 0.237508 0.971386 302.481 180.483)" fill="white"/>
<ellipse rx="1.22391" ry="1.2297" transform="matrix(0.971667 -0.236352 0.237508 0.971386 318.481 221.483)" fill="white"/>
<ellipse rx="1.22391" ry="1.2297" transform="matrix(0.971667 -0.236352 0.237508 0.971386 345.481 227.483)" fill="white"/>
<ellipse rx="1.22391" ry="1.2297" transform="matrix(0.971667 -0.236352 0.237508 0.971386 332.481 214.483)" fill="white"/>
<ellipse rx="1.22391" ry="1.2297" transform="matrix(0.971667 -0.236352 0.237508 0.971386 366.481 219.483)" fill="white"/>
<ellipse rx="1.22391" ry="1.2297" transform="matrix(0.971667 -0.236352 0.237508 0.971386 324.481 232.483)" fill="white"/>
<ellipse rx="1.22391" ry="1.2297" transform="matrix(0.971667 -0.236352 0.237508 0.971386 290.481 192.483)" fill="white"/>
<ellipse rx="1.22391" ry="1.2297" transform="matrix(0.971667 -0.236352 0.237508 0.971386 319.481 182.483)" fill="white"/>
<ellipse rx="1.22391" ry="1.2297" transform="matrix(0.971667 -0.236352 0.237508 0.971386 306.481 151.483)" fill="white"/>
<ellipse rx="2.45245" ry="2.45479" transform="matrix(0.947244 0.320515 -0.315991 0.948762 52.7495 260.24)" fill="white"/>
<ellipse rx="2.44782" ry="2.4594" transform="matrix(0.971667 -0.236352 0.237508 0.971386 412.17 -0.228584)" fill="white"/>
<ellipse rx="2.44782" ry="2.4594" transform="matrix(0.971667 -0.236352 0.237508 0.971386 393.097 158.809)" fill="white"/>
<ellipse rx="2.45028" ry="2.45695" transform="matrix(-0.65725 0.753673 -0.751014 -0.660286 217.387 44.7244)" fill="white"/>
<ellipse rx="2.45028" ry="2.45695" transform="matrix(-0.65725 0.753673 -0.751014 -0.660286 174.572 199.416)" fill="white"/>
<ellipse rx="2.45401" ry="2.45323" transform="matrix(0.378272 -0.925694 0.923847 0.382763 194.175 32.3529)" fill="white"/>
<ellipse rx="2.45401" ry="2.45323" transform="matrix(0.378272 -0.925694 0.923847 0.382763 157.786 213.322)" fill="white"/>
<ellipse rx="2.45245" ry="2.45479" transform="matrix(0.947244 0.320515 -0.315991 0.948762 55.0474 307.668)" fill="white"/>
<ellipse rx="2.44782" ry="2.4594" transform="matrix(0.971667 -0.236352 0.237508 0.971386 363.221 57.2363)" fill="white"/>
<ellipse rx="2.45028" ry="2.45695" transform="matrix(-0.65725 0.753673 -0.751014 -0.660286 299.952 110.791)" fill="white"/>
<ellipse rx="2.45028" ry="2.45695" transform="matrix(-0.65725 0.753673 -0.751014 -0.660286 326.038 138.15)" fill="white"/>
<ellipse rx="2.45028" ry="2.45695" transform="matrix(-0.65725 0.753673 -0.751014 -0.660286 344.065 88.2049)" fill="white"/>
<ellipse rx="2.45028" ry="2.45695" transform="matrix(-0.65725 0.753673 -0.751014 -0.660286 257.135 265.478)" fill="white"/>
<ellipse rx="2.45401" ry="2.45323" transform="matrix(0.378272 -0.925694 0.923847 0.382763 58.474 177.488)" fill="white"/>
<ellipse rx="2.45245" ry="2.45479" transform="matrix(0.947244 0.320515 -0.315991 0.948762 83.7583 205.945)" fill="white"/>
<ellipse rx="2.44782" ry="2.4594" transform="matrix(0.971667 -0.236352 0.237508 0.971386 285.528 28.0468)" fill="white"/>
<ellipse rx="2.44782" ry="2.4594" transform="matrix(0.971667 -0.236352 0.237508 0.971386 266.453 187.084)" fill="white"/>
<ellipse rx="2.44782" ry="2.4594" transform="matrix(0.971667 -0.236352 0.237508 0.971386 294.159 238.56)" fill="white"/>
<ellipse rx="2.44782" ry="2.4594" transform="matrix(0.971667 -0.236352 0.237508 0.971386 352.87 262.244)" fill="white"/>
<ellipse rx="2.44782" ry="2.4594" transform="matrix(0.971667 -0.236352 0.237508 0.971386 370.355 199.775)" fill="white"/>
<ellipse rx="2.44782" ry="2.4594" transform="matrix(0.971667 -0.236352 0.237508 0.971386 423.806 201.961)" fill="white"/>
<ellipse rx="2.44782" ry="2.4594" transform="matrix(0.971667 -0.236352 0.237508 0.971386 451.193 174.904)" fill="white"/>
<ellipse rx="2.44782" ry="2.4594" transform="matrix(0.971667 -0.236352 0.237508 0.971386 444.342 117.514)" fill="white"/>
<ellipse rx="2.44782" ry="2.4594" transform="matrix(0.971667 -0.236352 0.237508 0.971386 412.992 38.1699)" fill="white"/>
<ellipse rx="2.44782" ry="2.4594" transform="matrix(0.971667 -0.236352 0.237508 0.971386 465.484 -0.494209)" fill="white"/>
<ellipse rx="2.44782" ry="2.4594" transform="matrix(0.971667 -0.236352 0.237508 0.971386 432.813 1.90618)" fill="white"/>
<ellipse rx="2.45028" ry="2.45695" transform="matrix(-0.65725 0.753673 -0.751014 -0.660286 261.772 103.158)" fill="white"/>
<ellipse rx="2.45401" ry="2.45323" transform="matrix(0.378272 -0.925694 0.923847 0.382763 142.709 151.814)" fill="white"/>
<ellipse rx="2.44782" ry="2.4594" transform="matrix(0.971667 -0.236352 0.237508 0.971386 339.106 -0.173897)" fill="white"/>
<ellipse rx="2.44782" ry="2.4594" transform="matrix(0.971667 -0.236352 0.237508 0.971386 320.032 158.865)" fill="white"/>
<ellipse rx="2.45028" ry="2.45695" transform="matrix(-0.65725 0.753673 -0.751014 -0.660286 277.006 2.52911)" fill="white"/>
<ellipse rx="2.45028" ry="2.45695" transform="matrix(-0.65725 0.753673 -0.751014 -0.660286 234.192 157.217)" fill="white"/>
<ellipse rx="2.45401" ry="2.45323" transform="matrix(0.378272 -0.925694 0.923847 0.382763 151.389 91.6595)" fill="white"/>
<ellipse rx="2.45401" ry="2.45323" transform="matrix(0.378272 -0.925694 0.923847 0.382763 114.999 272.624)" fill="white"/>
<ellipse rx="2.44782" ry="2.4594" transform="matrix(0.971667 -0.236352 0.237508 0.971386 327.046 43.2577)" fill="white"/>
<ellipse rx="2.44782" ry="2.4594" transform="matrix(0.971667 -0.236352 0.237508 0.971386 307.973 202.295)" fill="white"/>
<ellipse rx="2.45028" ry="2.45695" transform="matrix(-0.65725 0.753673 -0.751014 -0.660286 219.162 114.638)" fill="white"/>
<ellipse rx="2.45401" ry="2.45323" transform="matrix(0.378272 -0.925694 0.923847 0.382763 179.298 127.128)" fill="white"/>
<ellipse rx="2.45401" ry="2.45323" transform="matrix(0.378272 -0.925694 0.923847 0.382763 142.908 308.097)" fill="white"/>
<ellipse cx="213.746" cy="307.876" rx="26.7455" ry="26.876" fill="#1627F1"/>
</g>
<path fill-rule="evenodd" clip-rule="evenodd" d="M166.535 57.2264C186.183 70.1056 204.826 77.142 208.174 72.9426C211.522 68.7432 198.307 54.8983 178.659 42.0191C159.01 29.1399 140.368 22.1035 137.02 26.3029C133.672 30.5023 146.886 44.3472 166.535 57.2264ZM168.94 54.7418C186.273 66.1032 201.758 73.2117 204.101 70.2721C206.445 67.3326 194.293 55.7393 176.96 44.3779C159.627 33.0164 143.676 26.1891 141.333 29.1287C138.989 32.0683 151.607 43.3803 168.94 54.7418Z" fill="#FB2900"/>
<circle cx="172.628" cy="49.6552" r="26.1214" transform="rotate(52.4907 172.628 49.6552)" fill="#1627F1"/>
<path fill-rule="evenodd" clip-rule="evenodd" d="M168.939 54.7416C186.272 66.103 201.73 73.246 204.074 70.3064C204.202 70.146 204.286 69.9598 204.329 69.7493C206.855 71.0289 208.803 72.1524 208.147 72.9754C204.799 77.1747 186.157 70.1384 166.509 57.2592C146.86 44.38 133.646 30.535 136.994 26.3357C137.868 25.2392 139.445 26.511 141.735 28.8067C141.561 28.9033 141.418 29.0219 141.305 29.163C138.962 32.1025 151.606 43.3801 168.939 54.7416Z" fill="#FB2900"/>
</g>
</svg>
