<svg width="149" height="128" viewBox="0 0 149 128" fill="none" xmlns="http://www.w3.org/2000/svg">
<mask id="mask0" mask-type="alpha" maskUnits="userSpaceOnUse" x="0" y="0" width="149" height="128">
<rect width="149" height="128" fill="#C4C4C4"/>
</mask>
<g mask="url(#mask0)">
<mask id="mask1" mask-type="alpha" maskUnits="userSpaceOnUse" x="0" y="-114" width="397" height="242">
<rect y="-113.845" width="396.382" height="241.845" fill="#C4C4C4"/>
</mask>
<g mask="url(#mask1)">
<rect x="1.6084" y="-112.846" width="392.861" height="239.845" fill="black" stroke="black" stroke-width="2"/>
<ellipse rx="1.12233" ry="1.11689" transform="matrix(-0.0249482 0.999689 -0.999683 -0.025192 36.7456 3.61338)" fill="white"/>
<ellipse rx="0.37411" ry="0.372296" transform="matrix(-0.0249482 0.999689 -0.999683 -0.025192 42.6634 5.25915)" fill="white"/>
<ellipse rx="0.37411" ry="0.372296" transform="matrix(-0.0249482 0.999689 -0.999683 -0.025192 64.3621 1.31481)" fill="white"/>
<ellipse rx="0.37411" ry="0.372296" transform="matrix(-0.0249482 0.999689 -0.999683 -0.025192 55.9876 8.58727)" fill="white"/>
<ellipse rx="0.746965" ry="0.745851" transform="matrix(0.58692 -0.809645 0.806918 0.590663 86.5871 0.979325)" fill="white"/>
<ellipse cx="51.3567" cy="-2.89268" rx="3.72295" ry="3.74111" fill="#FB2900"/>
<ellipse cx="13.3854" cy="112.027" rx="4.86731" ry="5.01942" fill="#FB2900"/>
<ellipse rx="1.11697" ry="1.12225" transform="matrix(0.971667 -0.236352 0.237508 0.971386 121.447 -1.1514)" fill="white"/>
<ellipse rx="1.11697" ry="1.12225" transform="matrix(0.971667 -0.236352 0.237508 0.971386 133.168 58.6562)" fill="white"/>
<ellipse rx="1.11697" ry="1.12225" transform="matrix(0.971667 -0.236352 0.237508 0.971386 147.729 85.0664)" fill="white"/>
<ellipse rx="1.11697" ry="1.12225" transform="matrix(0.504933 -0.863159 0.863758 0.503906 146.64 56.5194)" fill="white"/>
<ellipse rx="1.11697" ry="1.12225" transform="matrix(0.971667 -0.236352 0.237508 0.971386 123.499 74.8134)" fill="white"/>
<ellipse rx="1.11809" ry="1.12113" transform="matrix(-0.65725 0.753673 -0.751014 -0.660286 67.2278 56.0135)" fill="white"/>
<ellipse rx="1.11809" ry="1.12113" transform="matrix(-0.65725 0.753673 -0.751014 -0.660286 54.2024 103.07)" fill="white"/>
<ellipse rx="1.11979" ry="1.11944" transform="matrix(0.378272 -0.925694 0.923847 0.382763 55.3279 36.2308)" fill="white"/>
<ellipse rx="1.11979" ry="1.11944" transform="matrix(0.378272 -0.925694 0.923847 0.382763 44.2576 91.2825)" fill="white"/>
<ellipse rx="1.11908" ry="1.12015" transform="matrix(0.947244 0.320515 -0.315991 0.948762 24.0518 123.366)" fill="white"/>
<ellipse rx="0.372323" ry="0.374084" transform="matrix(0.971667 -0.236352 0.237508 0.971386 122.104 18.9433)" fill="white"/>
<ellipse rx="0.372323" ry="0.374084" transform="matrix(0.971667 -0.236352 0.237508 0.971386 116.302 67.3232)" fill="white"/>
<ellipse rx="0.372697" ry="0.373711" transform="matrix(-0.65725 0.753673 -0.751014 -0.660286 77.3928 58.0029)" fill="white"/>
<ellipse rx="0.372697" ry="0.373711" transform="matrix(-0.65725 0.753673 -0.751014 -0.660286 64.3679 105.06)" fill="white"/>
<ellipse rx="0.373263" ry="0.373145" transform="matrix(0.378272 -0.925694 0.923847 0.382763 45.0767 37.641)" fill="white"/>
<ellipse rx="0.373263" ry="0.373145" transform="matrix(0.378272 -0.925694 0.923847 0.382763 34.0074 92.6928)" fill="white"/>
<ellipse rx="0.373026" ry="0.373383" transform="matrix(0.947244 0.320515 -0.315991 0.948762 21.937 113.189)" fill="white"/>
<ellipse rx="0.372323" ry="0.374084" transform="matrix(0.971667 -0.236352 0.237508 0.971386 129.327 20.2666)" fill="white"/>
<ellipse rx="0.372323" ry="0.374084" transform="matrix(0.971667 -0.236352 0.237508 0.971386 123.524 68.6465)" fill="white"/>
<ellipse rx="0.372697" ry="0.373711" transform="matrix(-0.65725 0.753673 -0.751014 -0.660286 70.7385 61.0849)" fill="white"/>
<ellipse rx="0.372697" ry="0.373711" transform="matrix(-0.65725 0.753673 -0.751014 -0.660286 57.7136 108.142)" fill="white"/>
<ellipse rx="0.373263" ry="0.373145" transform="matrix(0.378272 -0.925694 0.923847 0.382763 50.377 32.5629)" fill="white"/>
<ellipse rx="0.373263" ry="0.373145" transform="matrix(0.378272 -0.925694 0.923847 0.382763 39.3067 87.6157)" fill="white"/>
<ellipse rx="0.373026" ry="0.373383" transform="matrix(0.947244 0.320515 -0.315991 0.948762 27.353 118.176)" fill="white"/>
<ellipse rx="0.372323" ry="0.374084" transform="matrix(0.971667 -0.236352 0.237508 0.971386 110.438 43.3398)" fill="white"/>
<ellipse rx="0.372323" ry="0.374084" transform="matrix(0.971667 -0.236352 0.237508 0.971386 104.636 91.7217)" fill="white"/>
<ellipse rx="0.372323" ry="0.374084" transform="matrix(0.971667 -0.236352 0.237508 0.971386 100.967 104.933)" fill="white"/>
<ellipse rx="0.372323" ry="0.374084" transform="matrix(0.971667 -0.236352 0.237508 0.971386 85.164 81.0576)" fill="white"/>
<ellipse rx="0.372323" ry="0.374084" transform="matrix(0.971667 -0.236352 0.237508 0.971386 63.6098 93.2305)" fill="white"/>
<ellipse rx="0.372323" ry="0.374084" transform="matrix(0.971667 -0.236352 0.237508 0.971386 74.2851 89.8633)" fill="white"/>
<ellipse rx="0.372323" ry="0.374084" transform="matrix(0.971667 -0.236352 0.237508 0.971386 88.9838 118.627)" fill="white"/>
<ellipse rx="0.372323" ry="0.374084" transform="matrix(0.971667 -0.236352 0.237508 0.971386 59.3564 116.595)" fill="white"/>
<ellipse rx="0.372323" ry="0.374084" transform="matrix(0.971667 -0.236352 0.237508 0.971386 115.058 106.126)" fill="white"/>
<ellipse rx="0.372323" ry="0.374084" transform="matrix(0.971667 -0.236352 0.237508 0.971386 125.06 90.6025)" fill="white"/>
<ellipse rx="0.372323" ry="0.374084" transform="matrix(0.971667 -0.236352 0.237508 0.971386 130.697 82.3017)" fill="white"/>
<ellipse rx="0.372697" ry="0.373711" transform="matrix(-0.65725 0.753673 -0.751014 -0.660286 72.9436 31.2636)" fill="white"/>
<ellipse rx="0.372697" ry="0.373711" transform="matrix(-0.65725 0.753673 -0.751014 -0.660286 59.9187 78.3193)" fill="white"/>
<ellipse rx="0.373263" ry="0.373145" transform="matrix(0.378272 -0.925694 0.923847 0.382763 57.8873 61.5327)" fill="white"/>
<ellipse rx="0.373263" ry="0.373145" transform="matrix(0.378272 -0.925694 0.923847 0.382763 46.8165 116.584)" fill="white"/>
<ellipse rx="0.372323" ry="0.374084" transform="matrix(0.971667 -0.236352 0.237508 0.971386 94.9008 42.5)" fill="white"/>
<ellipse rx="0.372323" ry="0.374084" transform="matrix(0.971667 -0.236352 0.237508 0.971386 89.0986 90.8808)" fill="white"/>
<ellipse rx="0.372697" ry="0.373711" transform="matrix(-0.65725 0.753673 -0.751014 -0.660286 86.1101 22.9902)" fill="white"/>
<ellipse rx="0.372697" ry="0.373711" transform="matrix(0.0856127 0.996329 -0.996666 0.0815913 148.554 46.8735)" fill="white"/>
<ellipse rx="0.372697" ry="0.373711" transform="matrix(0.0856127 0.996329 -0.996666 0.0815913 149.162 9.76022)" fill="white"/>
<ellipse rx="0.372697" ry="0.373711" transform="matrix(0.0856127 0.996329 -0.996666 0.0815913 143.382 18.2788)" fill="white"/>
<ellipse rx="0.372697" ry="0.373711" transform="matrix(0.0856127 0.996329 -0.996666 0.0815913 140.035 104.369)" fill="white"/>
<ellipse rx="0.372697" ry="0.373711" transform="matrix(-0.65725 0.753673 -0.751014 -0.660286 73.0852 70.0468)" fill="white"/>
<ellipse rx="0.373263" ry="0.373145" transform="matrix(0.378272 -0.925694 0.923847 0.382763 48.1026 73.6401)" fill="white"/>
<ellipse rx="0.372323" ry="0.374084" transform="matrix(0.971667 -0.236352 0.237508 0.971386 114.03 48.6269)" fill="white"/>
<ellipse rx="0.372697" ry="0.373711" transform="matrix(-0.65725 0.753673 -0.751014 -0.660286 89.9558 72.0263)" fill="white"/>
<ellipse rx="0.372697" ry="0.373711" transform="matrix(-0.65725 0.753673 -0.751014 -0.660286 76.9314 119.083)" fill="white"/>
<ellipse rx="0.373263" ry="0.373145" transform="matrix(0.378272 -0.925694 0.923847 0.382763 17.6178 83.477)" fill="white"/>
<ellipse rx="0.373026" ry="0.373383" transform="matrix(0.947244 0.320515 -0.315991 0.948762 29.9556 96.1935)" fill="white"/>
<ellipse rx="0.372323" ry="0.374084" transform="matrix(0.971667 -0.236352 0.237508 0.971386 108.547 19.9316)" fill="white"/>
<ellipse rx="0.372323" ry="0.374084" transform="matrix(0.971667 -0.236352 0.237508 0.971386 117.987 11.3203)" fill="white"/>
<ellipse rx="0.372323" ry="0.374084" transform="matrix(0.971667 -0.236352 0.237508 0.971386 137.062 14.7285)" fill="white"/>
<ellipse rx="0.372323" ry="0.374084" transform="matrix(0.971667 -0.236352 0.237508 0.971386 134.11 42.8428)" fill="white"/>
<ellipse rx="0.372323" ry="0.374084" transform="matrix(0.971667 -0.236352 0.237508 0.971386 93.3412 27.1348)" fill="white"/>
<ellipse rx="0.372323" ry="0.374084" transform="matrix(0.971667 -0.236352 0.237508 0.971386 134.545 76.8955)" fill="white"/>
<ellipse rx="0.372323" ry="0.374084" transform="matrix(0.971667 -0.236352 0.237508 0.971386 146.425 90.2568)" fill="white"/>
<ellipse rx="0.372323" ry="0.374084" transform="matrix(0.971667 -0.236352 0.237508 0.971386 102.98 24.6182)" fill="white"/>
<ellipse rx="0.372323" ry="0.374084" transform="matrix(0.971667 -0.236352 0.237508 0.971386 110.109 2.52343)" fill="white"/>
<ellipse rx="0.372323" ry="0.374084" transform="matrix(0.971667 -0.236352 0.237508 0.971386 102.745 68.3115)" fill="white"/>
<ellipse rx="0.372697" ry="0.373711" transform="matrix(-0.65725 0.753673 -0.751014 -0.660286 87.8958 49.372)" fill="white"/>
<ellipse rx="0.372697" ry="0.373711" transform="matrix(-0.65725 0.753673 -0.751014 -0.660286 74.8709 96.4287)" fill="white"/>
<ellipse rx="0.372697" ry="0.373711" transform="matrix(-0.65725 0.753673 -0.751014 -0.660286 78.9304 101.975)" fill="white"/>
<ellipse rx="0.372697" ry="0.373711" transform="matrix(-0.65725 0.753673 -0.751014 -0.660286 91.7879 90.1972)" fill="white"/>
<ellipse rx="0.372697" ry="0.373711" transform="matrix(-0.65725 0.753673 -0.751014 -0.660286 84.7913 98.7148)" fill="white"/>
<ellipse rx="0.372697" ry="0.373711" transform="matrix(-0.65725 0.753673 -0.751014 -0.660286 91.7879 91.413)" fill="white"/>
<ellipse rx="0.372697" ry="0.373711" transform="matrix(-0.65725 0.753673 -0.751014 -0.660286 70.3748 117.145)" fill="white"/>
<ellipse rx="0.373263" ry="0.373145" transform="matrix(0.378272 -0.925694 0.923847 0.382763 37.9264 49.2221)" fill="white"/>
<ellipse rx="0.373263" ry="0.373145" transform="matrix(0.378272 -0.925694 0.923847 0.382763 26.8556 104.273)" fill="white"/>
<ellipse rx="0.373026" ry="0.373383" transform="matrix(0.947244 0.320515 -0.315991 0.948762 9.92481 106.759)" fill="white"/>
<ellipse rx="0.372323" ry="0.374084" transform="matrix(0.971667 -0.236352 0.237508 0.971386 123.22 54.8603)" fill="white"/>
<ellipse rx="0.372697" ry="0.373711" transform="matrix(-0.65725 0.753673 -0.751014 -0.660286 78.8831 72.2158)" fill="white"/>
<ellipse rx="0.372697" ry="0.373711" transform="matrix(-0.65725 0.753673 -0.751014 -0.660286 65.8577 119.272)" fill="white"/>
<ellipse rx="0.373263" ry="0.373145" transform="matrix(0.378272 -0.925694 0.923847 0.382763 64.0182 37.8452)" fill="white"/>
<ellipse rx="0.373263" ry="0.373145" transform="matrix(0.378272 -0.925694 0.923847 0.382763 97.9102 57.3207)" fill="white"/>
<ellipse rx="0.373263" ry="0.373145" transform="matrix(0.378272 -0.925694 0.923847 0.382763 112.356 59.9672)" fill="white"/>
<ellipse rx="0.373263" ry="0.373145" transform="matrix(0.378272 -0.925694 0.923847 0.382763 88.8722 57.9789)" fill="white"/>
<ellipse rx="0.373263" ry="0.373145" transform="matrix(0.378272 -0.925694 0.923847 0.382763 28.026 79.7094)" fill="white"/>
<ellipse rx="0.373263" ry="0.373145" transform="matrix(0.378272 -0.925694 0.923847 0.382763 18.3839 61.2651)" fill="white"/>
<ellipse rx="0.373263" ry="0.373145" transform="matrix(0.378272 -0.925694 0.923847 0.382763 33.1842 65.3657)" fill="white"/>
<ellipse rx="0.373263" ry="0.373145" transform="matrix(0.378272 -0.925694 0.923847 0.382763 8.12655 94.56)" fill="white"/>
<ellipse rx="0.373263" ry="0.373145" transform="matrix(0.378272 -0.925694 0.923847 0.382763 56.0699 124.477)" fill="white"/>
<ellipse rx="0.373263" ry="0.373145" transform="matrix(0.378272 -0.925694 0.923847 0.382763 74.0323 107.018)" fill="white"/>
<ellipse rx="0.373026" ry="0.373383" transform="matrix(0.947244 0.320515 -0.315991 0.948762 34.4268 106.379)" fill="white"/>
<ellipse rx="0.744645" ry="0.748167" transform="matrix(0.971667 -0.236352 0.237508 0.971386 116.157 36.9443)" fill="white"/>
<ellipse rx="0.744645" ry="0.748167" transform="matrix(0.971667 -0.236352 0.237508 0.971386 110.354 85.3252)" fill="white"/>
<ellipse rx="0.745393" ry="0.747423" transform="matrix(-0.65725 0.753673 -0.751014 -0.660286 71.9385 39.8085)" fill="white"/>
<ellipse rx="0.745393" ry="0.747423" transform="matrix(-0.65725 0.753673 -0.751014 -0.660286 58.9136 86.8661)" fill="white"/>
<ellipse rx="0.746526" ry="0.746291" transform="matrix(0.378272 -0.925694 0.923847 0.382763 56.0885 53.1102)" fill="white"/>
<ellipse rx="0.746526" ry="0.746291" transform="matrix(0.378272 -0.925694 0.923847 0.382763 45.0182 108.163)" fill="white"/>
<ellipse rx="0.746052" ry="0.746765" transform="matrix(0.947244 0.320515 -0.315991 0.948762 7.32277 125.194)" fill="white"/>
<ellipse rx="0.744645" ry="0.748167" transform="matrix(0.971667 -0.236352 0.237508 0.971386 117.121 22.0801)" fill="white"/>
<ellipse rx="0.744645" ry="0.748167" transform="matrix(0.971667 -0.236352 0.237508 0.971386 111.32 70.4609)" fill="white"/>
<ellipse rx="0.745393" ry="0.747423" transform="matrix(-0.65725 0.753673 -0.751014 -0.660286 79.6646 52.5566)" fill="white"/>
<ellipse rx="0.745393" ry="0.747423" transform="matrix(-0.65725 0.753673 -0.751014 -0.660286 66.6402 99.6132)" fill="white"/>
<ellipse rx="0.745393" ry="0.747423" transform="matrix(-0.65725 0.753673 -0.751014 -0.660286 82.7954 106.191)" fill="white"/>
<ellipse rx="0.746526" ry="0.746291" transform="matrix(0.378272 -0.925694 0.923847 0.382763 44.6823 43.537)" fill="white"/>
<ellipse rx="0.746526" ry="0.746291" transform="matrix(-0.403147 -0.915135 0.917082 -0.398698 147.918 73.9187)" fill="white"/>
<ellipse rx="0.746526" ry="0.746291" transform="matrix(-0.403147 -0.915135 0.917082 -0.398698 140.617 46.8435)" fill="white"/>
<ellipse rx="0.746526" ry="0.746291" transform="matrix(-0.403147 -0.915135 0.917082 -0.398698 140.617 25.5496)" fill="white"/>
<ellipse rx="0.746526" ry="0.746291" transform="matrix(-0.403147 -0.915135 0.917082 -0.398698 104.416 10.6443)" fill="white"/>
<ellipse rx="0.746526" ry="0.746291" transform="matrix(0.378272 -0.925694 0.923847 0.382763 33.6125 98.5887)" fill="white"/>
<circle cx="104.039" cy="88.1363" r="20.0777" transform="rotate(90 104.039 88.1363)" fill="#FB2900"/>
<path fill-rule="evenodd" clip-rule="evenodd" d="M123.44 93.2734C121.885 95.3504 117.703 99.3703 120.153 94.5722C120.405 94.0789 122.038 92.1988 124.024 89.9226C124.075 89.3366 124.101 88.7434 124.101 88.1441C124.101 83.9125 122.792 79.9867 120.557 76.7495C118.76 78.4703 117.016 80.6344 115.487 82.5302C113.151 85.4279 111.32 87.699 110.582 86.8025C109.977 86.0681 112.136 83.4899 114.753 80.3643C116.198 78.639 117.783 76.7468 119.119 74.9058C117.742 73.3368 116.124 71.9843 114.323 70.906C113.372 71.2565 112.382 71.7686 111.399 72.4774C108.697 74.4263 105.856 77.1989 103.462 79.5353C101.039 81.8997 99.0746 83.8174 98.1744 83.9826C93.6555 84.8122 103.435 76.4415 111.637 69.56C109.289 68.5972 106.718 68.0664 104.024 68.0664C93.4995 68.0664 84.8665 76.1636 84.0149 86.4679C84.873 85.6743 85.993 84.4965 87.3645 82.5866C88.8161 80.5653 98.3367 70.3349 95.8237 75.2549C95.5631 75.7652 93.2 78.5048 90.3222 81.841L90.3221 81.8411C88.2771 84.2119 85.9721 86.8841 83.9771 89.2717C84.2695 94.5547 86.6044 99.293 90.2054 102.71C92.408 100.891 94.5866 98.1886 96.4454 95.883L96.4454 95.883C98.7816 92.9853 100.613 90.7142 101.351 91.6107C101.956 92.3451 99.7967 94.9233 97.1794 98.0489C95.5068 100.046 93.6469 102.267 92.2014 104.374C93.9629 105.659 95.9416 106.665 98.0721 107.325C98.8795 106.986 99.7092 106.53 100.534 105.936C103.236 103.987 106.077 101.214 108.471 98.8779C110.893 96.5135 112.858 94.5958 113.758 94.4306C118.099 93.6337 109.245 101.327 101.271 108.035C102.171 108.158 103.09 108.222 104.024 108.222C113.339 108.222 121.173 101.877 123.44 93.2734Z" fill="#FFD801"/>
<ellipse rx="0.372323" ry="0.374084" transform="matrix(0.971667 -0.236352 0.237508 0.971386 92.017 88.9033)" fill="white"/>
<ellipse rx="0.372323" ry="0.374084" transform="matrix(0.971667 -0.236352 0.237508 0.971386 96.8842 101.377)" fill="white"/>
<ellipse rx="0.372323" ry="0.374084" transform="matrix(0.971667 -0.236352 0.237508 0.971386 105.098 103.202)" fill="white"/>
<ellipse rx="0.372323" ry="0.374084" transform="matrix(0.971667 -0.236352 0.237508 0.971386 101.143 99.2461)" fill="white"/>
<ellipse rx="0.372323" ry="0.374084" transform="matrix(0.971667 -0.236352 0.237508 0.971386 111.486 100.768)" fill="white"/>
<ellipse rx="0.372323" ry="0.374084" transform="matrix(0.971667 -0.236352 0.237508 0.971386 98.7099 104.723)" fill="white"/>
<ellipse rx="0.372323" ry="0.374084" transform="matrix(0.971667 -0.236352 0.237508 0.971386 88.3666 92.5547)" fill="white"/>
<ellipse rx="0.372323" ry="0.374084" transform="matrix(0.971667 -0.236352 0.237508 0.971386 97.1884 89.5127)" fill="white"/>
<ellipse rx="0.372323" ry="0.374084" transform="matrix(0.971667 -0.236352 0.237508 0.971386 93.2343 80.082)" fill="white"/>
<ellipse rx="0.746052" ry="0.746765" transform="matrix(0.947244 0.320515 -0.315991 0.948762 16.0469 113.165)" fill="white"/>
<ellipse rx="0.744645" ry="0.748167" transform="matrix(0.971667 -0.236352 0.237508 0.971386 125.385 33.9297)" fill="white"/>
<ellipse rx="0.744645" ry="0.748167" transform="matrix(0.971667 -0.236352 0.237508 0.971386 119.583 82.3095)" fill="white"/>
<ellipse rx="0.745393" ry="0.747423" transform="matrix(-0.65725 0.753673 -0.751014 -0.660286 66.1309 47.6054)" fill="white"/>
<ellipse rx="0.745393" ry="0.747423" transform="matrix(-0.65725 0.753673 -0.751014 -0.660286 53.1065 94.663)" fill="white"/>
<ellipse rx="0.746526" ry="0.746291" transform="matrix(0.378272 -0.925694 0.923847 0.382763 59.0695 43.8417)" fill="white"/>
<ellipse rx="0.746526" ry="0.746291" transform="matrix(0.378272 -0.925694 0.923847 0.382763 48.0002 98.8934)" fill="white"/>
<ellipse rx="0.746052" ry="0.746765" transform="matrix(0.947244 0.320515 -0.315991 0.948762 16.7461 127.594)" fill="white"/>
<ellipse rx="0.744645" ry="0.748167" transform="matrix(0.971667 -0.236352 0.237508 0.971386 110.495 51.4111)" fill="white"/>
<ellipse rx="0.745393" ry="0.747423" transform="matrix(-0.65725 0.753673 -0.751014 -0.660286 91.2476 67.7021)" fill="white"/>
<ellipse rx="0.745393" ry="0.747423" transform="matrix(-0.65725 0.753673 -0.751014 -0.660286 99.1831 76.0253)" fill="white"/>
<ellipse rx="0.745393" ry="0.747423" transform="matrix(-0.65725 0.753673 -0.751014 -0.660286 104.668 60.8319)" fill="white"/>
<ellipse rx="0.745393" ry="0.747423" transform="matrix(-0.65725 0.753673 -0.751014 -0.660286 78.2227 114.76)" fill="white"/>
<ellipse rx="0.746526" ry="0.746291" transform="matrix(0.378272 -0.925694 0.923847 0.382763 17.7883 87.993)" fill="white"/>
<ellipse rx="0.746052" ry="0.746765" transform="matrix(0.947244 0.320515 -0.315991 0.948762 25.48 96.6488)" fill="white"/>
<ellipse rx="0.744645" ry="0.748167" transform="matrix(0.971667 -0.236352 0.237508 0.971386 86.8597 42.5312)" fill="white"/>
<ellipse rx="0.744645" ry="0.748167" transform="matrix(0.971667 -0.236352 0.237508 0.971386 81.057 90.9121)" fill="white"/>
<ellipse rx="0.744645" ry="0.748167" transform="matrix(0.971667 -0.236352 0.237508 0.971386 89.4852 106.571)" fill="white"/>
<ellipse rx="0.744645" ry="0.748167" transform="matrix(0.971667 -0.236352 0.237508 0.971386 107.346 113.776)" fill="white"/>
<ellipse rx="0.744645" ry="0.748167" transform="matrix(0.971667 -0.236352 0.237508 0.971386 112.664 94.7724)" fill="white"/>
<ellipse rx="0.744645" ry="0.748167" transform="matrix(0.971667 -0.236352 0.237508 0.971386 128.925 95.4375)" fill="white"/>
<ellipse rx="0.744645" ry="0.748167" transform="matrix(0.971667 -0.236352 0.237508 0.971386 137.256 87.207)" fill="white"/>
<ellipse rx="0.744645" ry="0.748167" transform="matrix(0.971667 -0.236352 0.237508 0.971386 135.172 69.748)" fill="white"/>
<ellipse rx="0.744645" ry="0.748167" transform="matrix(0.971667 -0.236352 0.237508 0.971386 125.635 45.6113)" fill="white"/>
<ellipse rx="0.744645" ry="0.748167" transform="matrix(0.971667 -0.236352 0.237508 0.971386 141.604 33.8496)" fill="white"/>
<ellipse rx="0.744645" ry="0.748167" transform="matrix(0.971667 -0.236352 0.237508 0.971386 131.665 34.5791)" fill="white"/>
<ellipse rx="0.744645" ry="0.748167" transform="matrix(0.971667 -0.236352 0.237508 0.971386 128.9 6.35252)" fill="white"/>
<ellipse rx="0.745393" ry="0.747423" transform="matrix(-0.65725 0.753673 -0.751014 -0.660286 92.6577 18.3241)" fill="white"/>
<ellipse rx="0.745393" ry="0.747423" transform="matrix(-0.65725 0.753673 -0.751014 -0.660286 79.6328 65.3817)" fill="white"/>
<ellipse rx="0.746526" ry="0.746291" transform="matrix(0.378272 -0.925694 0.923847 0.382763 43.4133 80.1825)" fill="white"/>
<ellipse rx="0.744645" ry="0.748167" transform="matrix(0.971667 -0.236352 0.237508 0.971386 103.159 33.9463)" fill="white"/>
<ellipse rx="0.744645" ry="0.748167" transform="matrix(0.971667 -0.236352 0.237508 0.971386 97.3558 82.3271)" fill="white"/>
<ellipse rx="0.745393" ry="0.747423" transform="matrix(-0.65725 0.753673 -0.751014 -0.660286 84.2671 34.7685)" fill="white"/>
<ellipse rx="0.745393" ry="0.747423" transform="matrix(-0.65725 0.753673 -0.751014 -0.660286 71.2432 81.8251)" fill="white"/>
<ellipse rx="0.746526" ry="0.746291" transform="matrix(0.378272 -0.925694 0.923847 0.382763 46.0539 61.8827)" fill="white"/>
<ellipse rx="0.746526" ry="0.746291" transform="matrix(0.378272 -0.925694 0.923847 0.382763 34.9836 116.934)" fill="white"/>
<ellipse rx="0.744645" ry="0.748167" transform="matrix(0.971667 -0.236352 0.237508 0.971386 99.4896 47.1592)" fill="white"/>
<ellipse rx="0.744645" ry="0.748167" transform="matrix(0.971667 -0.236352 0.237508 0.971386 93.6879 95.54)" fill="white"/>
<ellipse rx="0.745393" ry="0.747423" transform="matrix(-0.65725 0.753673 -0.751014 -0.660286 79.6958 21.8153)" fill="white"/>
<ellipse rx="0.745393" ry="0.747423" transform="matrix(-0.65725 0.753673 -0.751014 -0.660286 66.6709 68.873)" fill="white"/>
<ellipse rx="0.746526" ry="0.746291" transform="matrix(0.378272 -0.925694 0.923847 0.382763 54.5441 72.6737)" fill="white"/>
<ellipse rx="0.746526" ry="0.746291" transform="matrix(0.378272 -0.925694 0.923847 0.382763 43.4738 127.724)" fill="white"/>
<ellipse cx="65.0229" cy="127.657" rx="8.13617" ry="8.17586" fill="#1627F1"/>
</g>
<path fill-rule="evenodd" clip-rule="evenodd" d="M50.6609 51.4097C56.6381 55.3276 62.3093 57.4681 63.3277 56.1907C64.3462 54.9132 60.3263 50.7015 54.3491 46.7835C48.3719 42.8656 42.7007 40.7251 41.6823 42.0025C40.6638 43.28 44.6837 47.4917 50.6609 51.4097ZM51.393 50.6533C56.6658 54.1095 61.3764 56.272 62.0893 55.3777C62.8022 54.4835 59.1057 50.9567 53.8328 47.5005C48.56 44.0443 43.7076 41.9674 42.9947 42.8616C42.2817 43.7558 46.1201 47.1971 51.393 50.6533Z" fill="#FB2900"/>
<circle cx="52.514" cy="49.1057" r="7.94631" transform="rotate(52.4907 52.514 49.1057)" fill="#1627F1"/>
<path fill-rule="evenodd" clip-rule="evenodd" d="M51.3919 50.6538C56.6648 54.1101 61.3672 56.283 62.0801 55.3888C62.1191 55.3398 62.1449 55.283 62.158 55.2188C62.9264 55.6081 63.5192 55.9499 63.3196 56.2003C62.3011 57.4778 56.63 55.3372 50.6528 51.4193C44.6756 47.5014 40.6557 43.2896 41.6742 42.0122C41.9401 41.6786 42.4199 42.0656 43.1167 42.764C43.0637 42.7935 43.0198 42.8296 42.9855 42.8726C42.2725 43.7669 46.1191 47.1976 51.3919 50.6538Z" fill="#FB2900"/>
</g>
</svg>
