<svg width="266" height="103" viewBox="0 0 266 103" fill="none" xmlns="http://www.w3.org/2000/svg">
<mask id="mask0" mask-type="alpha" maskUnits="userSpaceOnUse" x="0" y="0" width="266" height="103">
<rect width="265.667" height="103" fill="#C4C4C4"/>
</mask>
<g mask="url(#mask0)">
<mask id="mask1" mask-type="alpha" maskUnits="userSpaceOnUse" x="-169" y="-162" width="435" height="265">
<rect x="-168.333" y="-162" width="434.333" height="265" fill="#C4C4C4"/>
</mask>
<g mask="url(#mask1)">
<rect x="-166.667" y="-160.999" width="430.667" height="263" fill="black" stroke="black" stroke-width="2"/>
<ellipse cx="150.5" cy="60.6673" rx="7.16667" ry="7.33333" fill="#FB2900"/>
<ellipse cx="101.318" cy="97.0081" rx="4.65139" ry="4.67408" fill="#FFD801"/>
<ellipse rx="1.22391" ry="1.2297" transform="matrix(-0.94856 -0.316597 0.315468 -0.948936 120.753 103.895)" fill="white"/>
<ellipse rx="1.22391" ry="1.2297" transform="matrix(-0.94856 -0.316597 0.315468 -0.948936 144.729 41.5677)" fill="white"/>
<ellipse rx="1.22391" ry="1.2297" transform="matrix(0.504933 -0.863159 0.863758 0.503906 89.5444 1.6267)" fill="white"/>
<ellipse rx="1.22391" ry="1.2297" transform="matrix(-0.94856 -0.316597 0.315468 -0.948936 146.608 8.57354)" fill="white"/>
<ellipse rx="1.22391" ry="1.2297" transform="matrix(0.504933 -0.863159 0.863758 0.503906 121.446 10.2507)" fill="white"/>
<ellipse rx="1.22391" ry="1.2297" transform="matrix(0.504933 -0.863159 0.863758 0.503906 130.68 41.0105)" fill="white"/>
<ellipse rx="1.22391" ry="1.2297" transform="matrix(-0.94856 -0.316597 0.315468 -0.948936 163.116 32.2083)" fill="white"/>
<ellipse rx="1.22391" ry="1.2297" transform="matrix(0.504933 -0.863159 0.863758 0.503906 94.9204 21.5466)" fill="white"/>
<ellipse rx="1.22514" ry="1.22848" transform="matrix(0.957416 -0.288713 0.284847 0.958573 204.378 82.4459)" fill="white"/>
<ellipse rx="1.22514" ry="1.22848" transform="matrix(0.0856127 0.996329 -0.996666 0.0815913 37.2711 51.5914)" fill="white"/>
<ellipse rx="1.22514" ry="1.22848" transform="matrix(0.957416 -0.288713 0.284847 0.958573 243.886 46.3707)" fill="white"/>
<ellipse rx="1.22514" ry="1.22848" transform="matrix(0.0856127 0.996329 -0.996666 0.0815913 64.4494 97.6754)" fill="white"/>
<ellipse rx="1.227" ry="1.22662" transform="matrix(-0.403147 -0.915135 0.917082 -0.398698 12.6205 45.9144)" fill="white"/>
<ellipse rx="1.227" ry="1.22662" transform="matrix(-0.812646 0.582757 -0.578804 -0.815467 246.245 63.1035)" fill="white"/>
<ellipse rx="1.227" ry="1.22662" transform="matrix(-0.403147 -0.915135 0.917082 -0.398698 47.5878 96.5414)" fill="white"/>
<ellipse rx="0.407971" ry="0.4099" transform="matrix(-0.94856 -0.316597 0.315468 -0.948936 131.853 84.8647)" fill="white"/>
<ellipse rx="0.407971" ry="0.4099" transform="matrix(-0.94856 -0.316597 0.315468 -0.948936 165.431 43.353)" fill="white"/>
<ellipse rx="0.407971" ry="0.4099" transform="matrix(0.504933 -0.863159 0.863758 0.503906 83.5391 21.5185)" fill="white"/>
<ellipse rx="0.40838" ry="0.409492" transform="matrix(0.957416 -0.288713 0.284847 0.958573 196.104 74.676)" fill="white"/>
<ellipse rx="0.40838" ry="0.409492" transform="matrix(0.0856127 0.996329 -0.996666 0.0815913 46.5765 45.0926)" fill="white"/>
<ellipse rx="0.40838" ry="0.409492" transform="matrix(0.957416 -0.288713 0.284847 0.958573 235.613 38.5998)" fill="white"/>
<ellipse rx="0.40838" ry="0.409492" transform="matrix(0.0856127 0.996329 -0.996666 0.0815913 73.7548 91.1776)" fill="white"/>
<ellipse rx="0.409001" ry="0.408872" transform="matrix(-0.403147 -0.915135 0.917082 -0.398698 5.92981 55.0682)" fill="white"/>
<ellipse rx="0.409001" ry="0.408872" transform="matrix(-0.812646 0.582757 -0.578804 -0.815467 256.579 67.7682)" fill="white"/>
<ellipse rx="0.407971" ry="0.4099" transform="matrix(-0.94856 -0.316597 0.315468 -0.948936 125.923 79.4291)" fill="white"/>
<ellipse rx="0.407971" ry="0.4099" transform="matrix(-0.94856 -0.316597 0.315468 -0.948936 159.5 37.9155)" fill="white"/>
<ellipse rx="0.407971" ry="0.4099" transform="matrix(0.504933 -0.863159 0.863758 0.503906 90.0801 16.8329)" fill="white"/>
<ellipse rx="0.40838" ry="0.409492" transform="matrix(0.957416 -0.288713 0.284847 0.958573 204.076 75.6945)" fill="white"/>
<ellipse rx="0.40838" ry="0.409492" transform="matrix(0.0856127 0.996329 -0.996666 0.0815913 43.9408 52.6844)" fill="white"/>
<ellipse rx="0.40838" ry="0.409492" transform="matrix(0.957416 -0.288713 0.284847 0.958573 243.583 39.6184)" fill="white"/>
<ellipse rx="0.40838" ry="0.409492" transform="matrix(0.0856127 0.996329 -0.996666 0.0815913 71.119 98.7684)" fill="white"/>
<ellipse rx="0.409001" ry="0.408872" transform="matrix(-0.403147 -0.915135 0.917082 -0.398698 5.96106 47.0252)" fill="white"/>
<ellipse rx="0.409001" ry="0.408872" transform="matrix(-0.812646 0.582757 -0.578804 -0.815467 248.702 69.3913)" fill="white"/>
<ellipse rx="0.409001" ry="0.408872" transform="matrix(-0.403147 -0.915135 0.917082 -0.398698 40.9293 97.6531)" fill="white"/>
<ellipse rx="0.407971" ry="0.4099" transform="matrix(-0.94856 -0.316597 0.315468 -0.948936 156.896 69.0258)" fill="white"/>
<ellipse rx="0.407971" ry="0.4099" transform="matrix(0.504933 -0.863159 0.863758 0.503906 60.1709 7.88566)" fill="white"/>
<ellipse rx="0.407971" ry="0.4099" transform="matrix(-0.94856 -0.316597 0.315468 -0.948936 190.474 27.5112)" fill="white"/>
<ellipse rx="0.407971" ry="0.4099" transform="matrix(0.504933 -0.863159 0.863758 0.503906 93.8911 49.2841)" fill="white"/>
<ellipse rx="0.407971" ry="0.4099" transform="matrix(-0.94856 -0.316597 0.315468 -0.948936 201.577 17.3891)" fill="white"/>
<ellipse rx="0.407971" ry="0.4099" transform="matrix(0.504933 -0.863159 0.863758 0.503906 101.512 62.2323)" fill="white"/>
<ellipse rx="0.407971" ry="0.4099" transform="matrix(-0.94856 -0.316597 0.315468 -0.948936 202.328 48.7534)" fill="white"/>
<ellipse rx="0.407971" ry="0.4099" transform="matrix(0.504933 -0.863159 0.863758 0.503906 70.6641 56.5155)" fill="white"/>
<ellipse rx="0.407971" ry="0.4099" transform="matrix(-0.94856 -0.316597 0.315468 -0.948936 229.423 50.018)" fill="white"/>
<ellipse rx="0.407971" ry="0.4099" transform="matrix(0.504933 -0.863159 0.863758 0.503906 63.854 82.7704)" fill="white"/>
<ellipse rx="0.407971" ry="0.4099" transform="matrix(-0.94856 -0.316597 0.315468 -0.948936 217.555 46.9223)" fill="white"/>
<ellipse rx="0.407971" ry="0.4099" transform="matrix(0.504933 -0.863159 0.863758 0.503906 69.3247 71.7929)" fill="white"/>
<ellipse rx="0.407971" ry="0.4099" transform="matrix(-0.94856 -0.316597 0.315468 -0.948936 220.676 11.6655)" fill="white"/>
<ellipse rx="0.407971" ry="0.4099" transform="matrix(0.504933 -0.863159 0.863758 0.503906 103.186 82.1005)" fill="white"/>
<ellipse rx="0.407971" ry="0.4099" transform="matrix(-0.94856 -0.316597 0.315468 -0.948936 246.984 30.8168)" fill="white"/>
<ellipse rx="0.407971" ry="0.4099" transform="matrix(-0.94856 -0.316597 0.315468 -0.948936 189.197 8.07269)" fill="white"/>
<ellipse rx="0.407971" ry="0.4099" transform="matrix(0.504933 -0.863159 0.863758 0.503906 113.177 52.0331)" fill="white"/>
<ellipse rx="0.407971" ry="0.4099" transform="matrix(-0.94856 -0.316597 0.315468 -0.948936 170.869 16.6479)" fill="white"/>
<ellipse rx="0.407971" ry="0.4099" transform="matrix(0.504933 -0.863159 0.863758 0.503906 108.555 32.3339)" fill="white"/>
<ellipse rx="0.407971" ry="0.4099" transform="matrix(-0.94856 -0.316597 0.315468 -0.948936 160.802 21.0659)" fill="white"/>
<ellipse rx="0.407971" ry="0.4099" transform="matrix(0.504933 -0.863159 0.863758 0.503906 106.301 21.5722)" fill="white"/>
<ellipse rx="0.40838" ry="0.409492" transform="matrix(0.957416 -0.288713 0.284847 0.958573 184.651 102.082)" fill="white"/>
<ellipse rx="0.40838" ry="0.409492" transform="matrix(0.0856127 0.996329 -0.996666 0.0815913 22.1137 28.2469)" fill="white"/>
<ellipse rx="0.40838" ry="0.409492" transform="matrix(0.957416 -0.288713 0.284847 0.958573 224.159 66.0061)" fill="white"/>
<ellipse rx="0.40838" ry="0.409492" transform="matrix(0.0856127 0.996329 -0.996666 0.0815913 49.2909 74.3309)" fill="white"/>
<ellipse rx="0.409001" ry="0.408872" transform="matrix(-0.812646 0.582757 -0.578804 -0.815467 216.262 82.7682)" fill="white"/>
<ellipse rx="0.409001" ry="0.408872" transform="matrix(-0.403147 -0.915135 0.917082 -0.398698 34.5118 63.1551)" fill="white"/>
<ellipse rx="0.409001" ry="0.408872" transform="matrix(-0.812646 0.582757 -0.578804 -0.815467 258.616 38.1344)" fill="white"/>
<ellipse rx="0.407971" ry="0.4099" transform="matrix(-0.94856 -0.316597 0.315468 -0.948936 170.823 78.8598)" fill="white"/>
<ellipse rx="0.407971" ry="0.4099" transform="matrix(0.504933 -0.863159 0.863758 0.503906 47.6831 19.4921)" fill="white"/>
<ellipse rx="0.407971" ry="0.4099" transform="matrix(-0.94856 -0.316597 0.315468 -0.948936 204.402 37.3461)" fill="white"/>
<ellipse rx="0.407971" ry="0.4099" transform="matrix(0.504933 -0.863159 0.863758 0.503906 81.4014 60.8905)" fill="white"/>
<ellipse rx="0.40838" ry="0.409492" transform="matrix(0.957416 -0.288713 0.284847 0.958573 167.611 102.086)" fill="white"/>
<ellipse rx="0.40838" ry="0.409492" transform="matrix(0.0856127 0.996329 -0.996666 0.0815913 25.6122 11.5712)" fill="white"/>
<ellipse rx="0.40838" ry="0.409492" transform="matrix(0.0856127 0.996329 -0.996666 0.0815913 12.1097 5.44127)" fill="white"/>
<ellipse rx="0.40838" ry="0.409492" transform="matrix(0.0856127 0.996329 -0.996666 0.0815913 122.11 27.1083)" fill="white"/>
<ellipse rx="0.40838" ry="0.409492" transform="matrix(0.0856127 0.996329 -0.996666 0.0815913 126.11 38.4393)" fill="white"/>
<ellipse rx="0.40838" ry="0.409492" transform="matrix(0.0856127 0.996329 -0.996666 0.0815913 125.443 49.4413)" fill="white"/>
<ellipse rx="0.40838" ry="0.409492" transform="matrix(0.0856127 0.996329 -0.996666 0.0815913 116.443 45.4413)" fill="white"/>
<ellipse rx="0.40838" ry="0.409492" transform="matrix(0.0856127 0.996329 -0.996666 0.0815913 9.44324 79.1073)" fill="white"/>
<ellipse rx="0.40838" ry="0.409492" transform="matrix(0.0856127 0.996329 -0.996666 0.0815913 101.11 95.1073)" fill="white"/>
<ellipse rx="0.40838" ry="0.409492" transform="matrix(0.0856127 0.996329 -0.996666 0.0815913 108.443 72.4413)" fill="white"/>
<ellipse rx="0.40838" ry="0.409492" transform="matrix(0.0856127 0.996329 -0.996666 0.0815913 124.11 70.7743)" fill="white"/>
<ellipse rx="0.40838" ry="0.409492" transform="matrix(0.0856127 0.996329 -0.996666 0.0815913 134.11 12.4413)" fill="white"/>
<ellipse rx="0.40838" ry="0.409492" transform="matrix(0.0856127 0.996329 -0.996666 0.0815913 144.776 31.7733)" fill="white"/>
<ellipse rx="0.40838" ry="0.409492" transform="matrix(0.957416 -0.288713 0.284847 0.958573 207.12 66.01)" fill="white"/>
<ellipse rx="0.40838" ry="0.409492" transform="matrix(0.0856127 0.996329 -0.996666 0.0815913 52.7909 57.6551)" fill="white"/>
<ellipse rx="0.409001" ry="0.408872" transform="matrix(-0.812646 0.582757 -0.578804 -0.815467 232.396 77.2331)" fill="white"/>
<ellipse rx="0.409001" ry="0.408872" transform="matrix(-0.403147 -0.915135 0.917082 -0.398698 36.6085 80.0828)" fill="white"/>
<ellipse rx="0.407971" ry="0.4099" transform="matrix(-0.94856 -0.316597 0.315468 -0.948936 156.644 62.0268)" fill="white"/>
<ellipse rx="0.407971" ry="0.4099" transform="matrix(0.504933 -0.863159 0.863758 0.503906 67.0727 9.07706)" fill="white"/>
<ellipse rx="0.40838" ry="0.409492" transform="matrix(0.957416 -0.288713 0.284847 0.958573 192.618 54.341)" fill="white"/>
<ellipse rx="0.40838" ry="0.409492" transform="matrix(0.0856127 0.996329 -0.996666 0.0815913 67.1928 45.8641)" fill="white"/>
<ellipse rx="0.40838" ry="0.409492" transform="matrix(0.957416 -0.288713 0.284847 0.958573 232.127 18.2668)" fill="white"/>
<ellipse rx="0.40838" ry="0.409492" transform="matrix(0.0856127 0.996329 -0.996666 0.0815913 94.371 91.9481)" fill="white"/>
<ellipse rx="0.408741" ry="0.409132" transform="matrix(-0.631723 -0.775194 0.772171 -0.635415 262.379 66.8812)" fill="white"/>
<ellipse rx="0.407971" ry="0.4099" transform="matrix(-0.94856 -0.316597 0.315468 -0.948936 145.009 91.8491)" fill="white"/>
<ellipse rx="0.407971" ry="0.4099" transform="matrix(-0.94856 -0.316597 0.315468 -0.948936 131.232 94.3393)" fill="white"/>
<ellipse rx="0.407971" ry="0.4099" transform="matrix(-0.94856 -0.316597 0.315468 -0.948936 115.517 80.06)" fill="white"/>
<ellipse rx="0.407971" ry="0.4099" transform="matrix(-0.94856 -0.316597 0.315468 -0.948936 134.64 55.6928)" fill="white"/>
<ellipse rx="0.407971" ry="0.4099" transform="matrix(-0.94856 -0.316597 0.315468 -0.948936 163.318 94.0248)" fill="white"/>
<ellipse rx="0.407971" ry="0.4099" transform="matrix(0.504933 -0.863159 0.863758 0.503906 34.3848 9.02726)" fill="white"/>
<ellipse rx="0.407971" ry="0.4099" transform="matrix(-0.94856 -0.316597 0.315468 -0.948936 154.08 23.8403)" fill="white"/>
<ellipse rx="0.407971" ry="0.4099" transform="matrix(0.504933 -0.863159 0.863758 0.503906 104.969 14.4237)" fill="white"/>
<ellipse rx="0.407971" ry="0.4099" transform="matrix(-0.94856 -0.316597 0.315468 -0.948936 150.843 4.518)" fill="white"/>
<ellipse rx="0.407971" ry="0.4099" transform="matrix(0.504933 -0.863159 0.863758 0.503906 124.544 15.2294)" fill="white"/>
<ellipse rx="0.407971" ry="0.4099" transform="matrix(-0.94856 -0.316597 0.315468 -0.948936 152.906 90.7436)" fill="white"/>
<ellipse rx="0.407971" ry="0.4099" transform="matrix(0.504933 -0.863159 0.863758 0.503906 39.7373 -0.486412)" fill="white"/>
<ellipse rx="0.407971" ry="0.4099" transform="matrix(-0.94856 -0.316597 0.315468 -0.948936 178.586 50.3364)" fill="white"/>
<ellipse rx="0.407971" ry="0.4099" transform="matrix(0.504933 -0.863159 0.863758 0.503906 73.999 32.956)" fill="white"/>
<ellipse rx="0.40838" ry="0.409492" transform="matrix(0.957416 -0.288713 0.284847 0.958573 181.329 76.5637)" fill="white"/>
<ellipse rx="0.40838" ry="0.409492" transform="matrix(0.0856127 0.996329 -0.996666 0.0815913 47.767 30.245)" fill="white"/>
<ellipse rx="0.40838" ry="0.409492" transform="matrix(0.957416 -0.288713 0.284847 0.958573 220.837 40.4895)" fill="white"/>
<ellipse rx="0.40838" ry="0.409492" transform="matrix(0.0856127 0.996329 -0.996666 0.0815913 74.9457 76.3299)" fill="white"/>
<ellipse rx="0.40838" ry="0.409492" transform="matrix(0.957416 -0.288713 0.284847 0.958573 220.302 32.9758)" fill="white"/>
<ellipse rx="0.40838" ry="0.409492" transform="matrix(0.0856127 0.996329 -0.996666 0.0815913 82.4081 77.3514)" fill="white"/>
<ellipse rx="0.40838" ry="0.409492" transform="matrix(0.957416 -0.288713 0.284847 0.958573 212.042 34.5412)" fill="white"/>
<ellipse rx="0.40838" ry="0.409492" transform="matrix(0.0856127 0.996329 -0.996666 0.0815913 82.5751 68.9452)" fill="white"/>
<ellipse rx="0.40838" ry="0.409492" transform="matrix(0.957416 -0.288713 0.284847 0.958573 237.081 23.885)" fill="white"/>
<ellipse rx="0.40838" ry="0.409492" transform="matrix(0.0856127 0.996329 -0.996666 0.0815913 87.8529 95.6415)" fill="white"/>
<ellipse rx="0.409001" ry="0.408872" transform="matrix(-0.403147 -0.915135 0.917082 -0.398698 9.61536 69.5184)" fill="white"/>
<ellipse rx="0.407971" ry="0.4099" transform="matrix(-0.94856 -0.316597 0.315468 -0.948936 151.748 50.8871)" fill="white"/>
<ellipse rx="0.407971" ry="0.4099" transform="matrix(0.504933 -0.863159 0.863758 0.503906 78.9805 6.57804)" fill="white"/>
<ellipse rx="0.40838" ry="0.409492" transform="matrix(0.957416 -0.288713 0.284847 0.958573 203.004 60.6193)" fill="white"/>
<ellipse rx="0.40838" ry="0.409492" transform="matrix(0.0856127 0.996329 -0.996666 0.0815913 58.9135 54.7372)" fill="white"/>
<ellipse rx="0.40838" ry="0.409492" transform="matrix(0.957416 -0.288713 0.284847 0.958573 242.513 24.5432)" fill="white"/>
<ellipse rx="0.40838" ry="0.409492" transform="matrix(0.0856127 0.996329 -0.996666 0.0815913 86.0917 100.821)" fill="white"/>
<ellipse rx="0.409001" ry="0.408872" transform="matrix(-0.812646 0.582757 -0.578804 -0.815467 196.769 101.175)" fill="white"/>
<ellipse rx="0.409001" ry="0.408872" transform="matrix(-0.403147 -0.915135 0.917082 -0.398698 20.5079 40.2928)" fill="white"/>
<ellipse rx="0.409001" ry="0.408872" transform="matrix(-0.812646 0.582757 -0.578804 -0.815467 176.668 63.3522)" fill="white"/>
<ellipse rx="0.409001" ry="0.408872" transform="matrix(-0.403147 -0.915135 0.917082 -0.398698 61.6559 28.4021)" fill="white"/>
<ellipse rx="0.409001" ry="0.408872" transform="matrix(-0.812646 0.582757 -0.578804 -0.815467 164.805 52.4791)" fill="white"/>
<ellipse rx="0.409001" ry="0.408872" transform="matrix(-0.403147 -0.915135 0.917082 -0.398698 74.7364 19.0291)" fill="white"/>
<ellipse rx="0.409001" ry="0.408872" transform="matrix(-0.812646 0.582757 -0.578804 -0.815467 185.439 68.0075)" fill="white"/>
<ellipse rx="0.409001" ry="0.408872" transform="matrix(-0.403147 -0.915135 0.917082 -0.398698 55.296 36.0271)" fill="white"/>
<ellipse rx="0.409001" ry="0.408872" transform="matrix(-0.812646 0.582757 -0.578804 -0.815467 254.563 83.3004)" fill="white"/>
<ellipse rx="0.409001" ry="0.408872" transform="matrix(-0.403147 -0.915135 0.917082 -0.398698 26.1114 100.528)" fill="white"/>
<ellipse rx="0.409001" ry="0.408872" transform="matrix(-0.403147 -0.915135 0.917082 -0.398698 4.23401 94.0896)" fill="white"/>
<ellipse rx="0.409001" ry="0.408872" transform="matrix(-0.812646 0.582757 -0.578804 -0.815467 241.417 93.6061)" fill="white"/>
<ellipse rx="0.409001" ry="0.408872" transform="matrix(-0.403147 -0.915135 0.917082 -0.398698 18.7306 85.5447)" fill="white"/>
<ellipse rx="0.409001" ry="0.408872" transform="matrix(-0.812646 0.582757 -0.578804 -0.815467 254.627 25.4186)" fill="white"/>
<ellipse rx="0.409001" ry="0.408872" transform="matrix(-0.812646 0.582757 -0.578804 -0.815467 227.786 31.151)" fill="white"/>
<ellipse rx="0.409001" ry="0.408872" transform="matrix(-0.403147 -0.915135 0.917082 -0.398698 82.6544 85.0506)" fill="white"/>
<ellipse rx="0.408741" ry="0.409132" transform="matrix(-0.631723 -0.775194 0.772171 -0.635415 264.166 54.8236)" fill="white"/>
<ellipse rx="0.815941" ry="0.8198" transform="matrix(-0.94856 -0.316597 0.315468 -0.948936 147.862 71.6278)" fill="white"/>
<ellipse rx="0.815941" ry="0.8198" transform="matrix(-0.94856 -0.316597 0.315468 -0.948936 181.439 30.1141)" fill="white"/>
<ellipse rx="0.815941" ry="0.8198" transform="matrix(0.504933 -0.863159 0.863758 0.503906 93.2016 39.908)" fill="white"/>
<ellipse rx="0.81676" ry="0.818984" transform="matrix(0.957416 -0.288713 0.284847 0.958573 190.563 94.7377)" fill="white"/>
<ellipse rx="0.81676" ry="0.818984" transform="matrix(0.0856127 0.996329 -0.996666 0.0815913 28.0837 35.5437)" fill="white"/>
<ellipse rx="0.81676" ry="0.818984" transform="matrix(0.957416 -0.288713 0.284847 0.958573 230.071 58.6616)" fill="white"/>
<ellipse rx="0.81676" ry="0.818984" transform="matrix(0.0856127 0.996329 -0.996666 0.0815913 55.262 81.6277)" fill="white"/>
<ellipse rx="0.818002" ry="0.817744" transform="matrix(-0.812646 0.582757 -0.578804 -0.815467 213.023 91.6302)" fill="white"/>
<ellipse rx="0.818002" ry="0.817744" transform="matrix(-0.403147 -0.915135 0.917082 -0.398698 26.5046 58.1627)" fill="white"/>
<ellipse rx="0.818002" ry="0.817744" transform="matrix(-0.812646 0.582757 -0.578804 -0.815467 255.377 46.9974)" fill="white"/>
<ellipse rx="0.815941" ry="0.8198" transform="matrix(-0.94856 -0.316597 0.315468 -0.948936 138.305 84.8573)" fill="white"/>
<ellipse rx="0.815941" ry="0.8198" transform="matrix(-0.94856 -0.316597 0.315468 -0.948936 171.882 43.3456)" fill="white"/>
<ellipse rx="0.815941" ry="0.8198" transform="matrix(0.504933 -0.863159 0.863758 0.503906 82.2202 27.8328)" fill="white"/>
<ellipse rx="0.81676" ry="0.818984" transform="matrix(0.957416 -0.288713 0.284847 0.958573 190.822 78.4067)" fill="white"/>
<ellipse rx="0.81676" ry="0.818984" transform="matrix(0.0856127 0.996329 -0.996666 0.0815913 44.012 39.156)" fill="white"/>
<ellipse rx="0.81676" ry="0.818984" transform="matrix(0.957416 -0.288713 0.284847 0.958573 230.331 42.3305)" fill="white"/>
<ellipse rx="0.81676" ry="0.818984" transform="matrix(0.0856127 0.996329 -0.996666 0.0815913 71.1907 85.2409)" fill="white"/>
<ellipse rx="0.81676" ry="0.818984" transform="matrix(0.957416 -0.288713 0.284847 0.958573 219.172 26.8119)" fill="white"/>
<ellipse rx="0.81676" ry="0.818984" transform="matrix(0.0856127 0.996329 -0.996666 0.0815913 88.6726 77.5134)" fill="white"/>
<ellipse rx="0.818002" ry="0.817744" transform="matrix(-0.403147 -0.915135 0.917082 -0.398698 10.2766 59.8678)" fill="white"/>
<ellipse rx="0.818002" ry="0.817744" transform="matrix(-0.403147 -0.915135 0.917082 -0.398698 7.74634 18.4078)" fill="white"/>
<ellipse rx="0.818002" ry="0.817744" transform="matrix(-0.403147 -0.915135 0.917082 -0.398698 130.746 25.7408)" fill="white"/>
<ellipse rx="0.818002" ry="0.817744" transform="matrix(-0.403147 -0.915135 0.917082 -0.398698 148.413 19.7408)" fill="white"/>
<ellipse rx="0.818002" ry="0.817744" transform="matrix(-0.403147 -0.915135 0.917082 -0.398698 8.07983 31.0758)" fill="white"/>
<ellipse rx="0.818002" ry="0.817744" transform="matrix(-0.403147 -0.915135 0.917082 -0.398698 0.746336 4.74081)" fill="white"/>
<ellipse rx="0.818002" ry="0.817744" transform="matrix(-0.812646 0.582757 -0.578804 -0.815467 260.381 62.5267)" fill="white"/>
<ellipse rx="0.815941" ry="0.8198" transform="matrix(-0.94856 -0.316597 0.315468 -0.948936 137.542 69.0467)" fill="white"/>
<ellipse rx="0.815941" ry="0.8198" transform="matrix(-0.94856 -0.316597 0.315468 -0.948936 171.119 27.5331)" fill="white"/>
<ellipse rx="0.815941" ry="0.8198" transform="matrix(0.504933 -0.863159 0.863758 0.503906 97.8496 30.3377)" fill="white"/>
<ellipse rx="0.81676" ry="0.818984" transform="matrix(0.957416 -0.288713 0.284847 0.958573 200.496 90.8881)" fill="white"/>
<ellipse rx="0.81676" ry="0.818984" transform="matrix(0.0856127 0.996329 -0.996666 0.0815913 29.8084 46.0564)" fill="white"/>
<ellipse rx="0.81676" ry="0.818984" transform="matrix(0.957416 -0.288713 0.284847 0.958573 240.004 54.811)" fill="white"/>
<ellipse rx="0.81676" ry="0.818984" transform="matrix(0.0856127 0.996329 -0.996666 0.0815913 56.9876 92.1394)" fill="white"/>
<ellipse rx="0.818002" ry="0.817744" transform="matrix(-0.812646 0.582757 -0.578804 -0.815467 204.855 98.4944)" fill="white"/>
<ellipse rx="0.818002" ry="0.817744" transform="matrix(-0.403147 -0.915135 0.917082 -0.398698 21.4675 48.7574)" fill="white"/>
<ellipse rx="0.818002" ry="0.817744" transform="matrix(-0.812646 0.582757 -0.578804 -0.815467 247.208 53.8606)" fill="white"/>
<ellipse rx="0.818002" ry="0.817744" transform="matrix(-0.403147 -0.915135 0.917082 -0.398698 56.4358 99.3853)" fill="white"/>
<ellipse rx="0.815941" ry="0.8198" transform="matrix(-0.94856 -0.316597 0.315468 -0.948936 161.547 61.5028)" fill="white"/>
<ellipse rx="0.815941" ry="0.8198" transform="matrix(0.504933 -0.863159 0.863758 0.503906 66.5766 13.9832)" fill="white"/>
<ellipse rx="0.81676" ry="0.818984" transform="matrix(0.957416 -0.288713 0.284847 0.958573 188.901 57.601)" fill="white"/>
<ellipse rx="0.81676" ry="0.818984" transform="matrix(0.0856127 0.996329 -0.996666 0.0815913 64.7673 41.5554)" fill="white"/>
<ellipse rx="0.81676" ry="0.818984" transform="matrix(0.957416 -0.288713 0.284847 0.958573 186.386 45.2533)" fill="white"/>
<ellipse rx="0.81676" ry="0.818984" transform="matrix(0.0856127 0.996329 -0.996666 0.0815913 77.3684 41.6355)" fill="white"/>
<ellipse rx="0.81676" ry="0.818984" transform="matrix(0.957416 -0.288713 0.284847 0.958573 172.444 56.1567)" fill="white"/>
<ellipse rx="0.81676" ry="0.818984" transform="matrix(0.0856127 0.996329 -0.996666 0.0815913 69.5667 25.7478)" fill="white"/>
<ellipse rx="0.81676" ry="0.818984" transform="matrix(0.957416 -0.288713 0.284847 0.958573 228.409 21.5268)" fill="white"/>
<ellipse rx="0.81676" ry="0.818984" transform="matrix(0.0856127 0.996329 -0.996666 0.0815913 91.9461 87.6384)" fill="white"/>
<ellipse rx="0.817482" ry="0.818264" transform="matrix(-0.631723 -0.775194 0.772171 -0.635415 266.798 69.0651)" fill="white"/>
<ellipse rx="0.815941" ry="0.8198" transform="matrix(-0.94856 -0.316597 0.315468 -0.948936 178.304 83.5155)" fill="white"/>
<ellipse rx="0.815941" ry="0.8198" transform="matrix(0.504933 -0.863159 0.863758 0.503906 41.5879 25.8543)" fill="white"/>
<ellipse rx="0.815941" ry="0.8198" transform="matrix(-0.94856 -0.316597 0.315468 -0.948936 211.882 42.0038)" fill="white"/>
<ellipse rx="0.815941" ry="0.8198" transform="matrix(0.504933 -0.863159 0.863758 0.503906 75.3057 67.2528)" fill="white"/>
<ellipse rx="0.815941" ry="0.8198" transform="matrix(-0.94856 -0.316597 0.315468 -0.948936 213.186 22.5604)" fill="white"/>
<ellipse rx="0.815941" ry="0.8198" transform="matrix(0.504933 -0.863159 0.863758 0.503906 94.0635 72.5291)" fill="white"/>
<ellipse rx="0.815941" ry="0.8198" transform="matrix(-0.94856 -0.316597 0.315468 -0.948936 200.811 5.46764)" fill="white"/>
<ellipse rx="0.815941" ry="0.8198" transform="matrix(0.504933 -0.863159 0.863758 0.503906 113.337 63.9344)" fill="white"/>
<ellipse rx="0.815941" ry="0.8198" transform="matrix(-0.94856 -0.316597 0.315468 -0.948936 184.802 20.0018)" fill="white"/>
<ellipse rx="0.815941" ry="0.8198" transform="matrix(0.504933 -0.863159 0.863758 0.503906 102.407 45.2772)" fill="white"/>
<ellipse rx="0.815941" ry="0.8198" transform="matrix(-0.94856 -0.316597 0.315468 -0.948936 170.1 9.90905)" fill="white"/>
<ellipse rx="0.815941" ry="0.8198" transform="matrix(0.504933 -0.863159 0.863758 0.503906 115.307 32.9676)" fill="white"/>
<ellipse rx="0.815941" ry="0.8198" transform="matrix(-0.94856 -0.316597 0.315468 -0.948936 157.573 12.6923)" fill="white"/>
<ellipse rx="0.815941" ry="0.8198" transform="matrix(0.504933 -0.863159 0.863758 0.503906 115.161 20.1346)" fill="white"/>
<ellipse rx="0.815941" ry="0.8198" transform="matrix(-0.94856 -0.316597 0.315468 -0.948936 149.333 30.1083)" fill="white"/>
<ellipse rx="0.815941" ry="0.8198" transform="matrix(0.504933 -0.863159 0.863758 0.503906 99.8125 8.48909)" fill="white"/>
<ellipse rx="0.815941" ry="0.8198" transform="matrix(-0.94856 -0.316597 0.315468 -0.948936 144.117 58.0624)" fill="white"/>
<ellipse rx="0.815941" ry="0.8198" transform="matrix(-0.94856 -0.316597 0.315468 -0.948936 122.446 59.6698)" fill="white"/>
<ellipse rx="0.815941" ry="0.8198" transform="matrix(-0.94856 -0.316597 0.315468 -0.948936 132.094 64.785)" fill="white"/>
<ellipse rx="0.815941" ry="0.8198" transform="matrix(-0.94856 -0.316597 0.315468 -0.948936 118.21 92.5897)" fill="white"/>
<ellipse rx="0.81676" ry="0.818984" transform="matrix(0.957416 -0.288713 0.284847 0.958573 158.818 102.6)" fill="white"/>
<ellipse rx="0.81676" ry="0.818984" transform="matrix(0.0856127 0.996329 -0.996666 0.0815913 26.9187 2.86008)" fill="white"/>
<ellipse rx="0.81676" ry="0.818984" transform="matrix(0.957416 -0.288713 0.284847 0.958573 198.326 66.5239)" fill="white"/>
<ellipse rx="0.81676" ry="0.818984" transform="matrix(0.0856127 0.996329 -0.996666 0.0815913 54.0974 48.9441)" fill="white"/>
<ellipse rx="0.818002" ry="0.817744" transform="matrix(-0.812646 0.582757 -0.578804 -0.815467 240.561 73.8968)" fill="white"/>
<ellipse rx="0.818002" ry="0.817744" transform="matrix(-0.403147 -0.915135 0.917082 -0.398698 38.196 88.7584)" fill="white"/>
<ellipse rx="0.815941" ry="0.8198" transform="matrix(-0.94856 -0.316597 0.315468 -0.948936 158.177 81.9833)" fill="white"/>
<ellipse rx="0.815941" ry="0.8198" transform="matrix(0.504933 -0.863159 0.863758 0.503906 47.2266 6.47346)" fill="white"/>
<ellipse rx="0.815941" ry="0.8198" transform="matrix(-0.94856 -0.316597 0.315468 -0.948936 191.755 40.4715)" fill="white"/>
<ellipse rx="0.815941" ry="0.8198" transform="matrix(0.504933 -0.863159 0.863758 0.503906 80.9448 47.8719)" fill="white"/>
<ellipse rx="0.81676" ry="0.818984" transform="matrix(0.957416 -0.288713 0.284847 0.958573 176.186 92.2299)" fill="white"/>
<ellipse rx="0.81676" ry="0.818984" transform="matrix(0.0856127 0.996329 -0.996666 0.0815913 33.4954 21.9909)" fill="white"/>
<ellipse rx="0.81676" ry="0.818984" transform="matrix(0.957416 -0.288713 0.284847 0.958573 215.693 56.1537)" fill="white"/>
<ellipse rx="0.81676" ry="0.818984" transform="matrix(0.0856127 0.996329 -0.996666 0.0815913 60.6736 68.073)" fill="white"/>
<ellipse rx="0.818002" ry="0.817744" transform="matrix(-0.812646 0.582757 -0.578804 -0.815467 227.447 89.3382)" fill="white"/>
<ellipse rx="0.818002" ry="0.817744" transform="matrix(-0.403147 -0.915135 0.917082 -0.398698 25.7815 72.7486)" fill="white"/>
<ellipse rx="0.815941" ry="0.8198" transform="matrix(-0.94856 -0.316597 0.315468 -0.948936 169.281 71.8622)" fill="white"/>
<ellipse rx="0.815941" ry="0.8198" transform="matrix(0.504933 -0.863159 0.863758 0.503906 54.8481 19.4217)" fill="white"/>
<ellipse rx="0.815941" ry="0.8198" transform="matrix(-0.94856 -0.316597 0.315468 -0.948936 202.857 30.3485)" fill="white"/>
<ellipse rx="0.815941" ry="0.8198" transform="matrix(0.504933 -0.863159 0.863758 0.503906 88.5669 60.8201)" fill="white"/>
<ellipse rx="0.81676" ry="0.818984" transform="matrix(0.0856127 0.996329 -0.996666 0.0815913 19.8054 15.7341)" fill="white"/>
<ellipse rx="0.81676" ry="0.818984" transform="matrix(0.957416 -0.288713 0.284847 0.958573 212.388 70.8364)" fill="white"/>
<ellipse rx="0.81676" ry="0.818984" transform="matrix(0.0856127 0.996329 -0.996666 0.0815913 46.9841 61.8191)" fill="white"/>
<ellipse rx="0.818002" ry="0.817744" transform="matrix(-0.812646 0.582757 -0.578804 -0.815467 225.856 74.3782)" fill="white"/>
<ellipse rx="0.818002" ry="0.817744" transform="matrix(-0.403147 -0.915135 0.917082 -0.398698 40.7493 74.2701)" fill="white"/>
</g>
<circle cx="14.2128" cy="58.8795" r="9.02133" transform="rotate(-124.546 14.2128 58.8795)" fill="#1627F1"/>
<ellipse cx="19.0562" cy="52.9134" rx="1.38412" ry="0.860335" transform="rotate(-139.586 19.0562 52.9134)" fill="#FFD801"/>
<ellipse cx="8.86384" cy="55.8552" rx="1.56225" ry="1.41231" transform="rotate(-139.586 8.86384 55.8552)" fill="#FFD801"/>
<ellipse cx="21.1951" cy="54.7182" rx="0.758628" ry="0.462098" transform="rotate(-120.983 21.1951 54.7182)" fill="#FFD801"/>
<ellipse cx="12.4258" cy="66.4752" rx="1.24743" ry="0.637069" transform="rotate(-167.6 12.4258 66.4752)" fill="#FFD801"/>
<ellipse cx="10.0178" cy="65.8571" rx="0.610068" ry="0.320236" transform="rotate(-156.824 10.0178 65.8571)" fill="#FFD801"/>
<path fill-rule="evenodd" clip-rule="evenodd" d="M57.036 0.96914C69.9144 -3.52737 79.746 -9.62607 78.9954 -12.6527C78.2448 -15.6793 67.1964 -14.4878 54.318 -9.99125C41.4395 -5.49475 31.608 0.603958 32.3585 3.63059C33.1091 6.65722 44.1575 5.46565 57.036 0.96914ZM56.7424 -1.01677C68.1032 -4.98338 76.8516 -9.60227 76.3262 -11.7209C75.8009 -13.8395 66.1652 -12.3415 54.8045 -8.37485C43.4437 -4.40824 34.6599 0.524835 35.1853 2.64347C35.7107 4.76211 45.3816 2.94985 56.7424 -1.01677Z" fill="#1627F1"/>
<circle cx="55.7024" cy="-4.4993" r="15.1667" fill="#FB2900"/>
<path fill-rule="evenodd" clip-rule="evenodd" d="M56.7426 -1.01685C68.1034 -4.98346 76.8583 -9.57782 76.3329 -11.6965C76.3042 -11.8121 76.2484 -11.9169 76.1667 -12.0112C77.6487 -12.7219 78.8547 -13.2218 79.0017 -12.6288C79.7523 -9.60216 69.9207 -3.50345 57.0423 0.993051C44.1638 5.48956 33.1154 6.68113 32.3648 3.6545C32.1688 2.86415 33.3124 2.58748 35.1798 2.34418C35.1629 2.45828 35.1667 2.56634 35.1919 2.66792C35.7173 4.78656 45.3819 2.94977 56.7426 -1.01685Z" fill="#1627F1"/>
<path fill-rule="evenodd" clip-rule="evenodd" d="M237.706 57.0286C267.552 57.0286 291.746 53.4708 291.746 49.0822C291.746 44.6935 267.552 41.1357 237.706 41.1357C207.861 41.1357 183.667 44.6935 183.667 49.0822C183.667 53.4708 207.861 57.0286 237.706 57.0286ZM237.888 54.6435C264.216 54.6435 285.559 52.153 285.559 49.081C285.559 46.0089 264.216 43.5185 237.888 43.5185C211.56 43.5185 190.216 46.0089 190.216 49.081C190.216 52.153 211.56 54.6435 237.888 54.6435Z" fill="#FFD801"/>
<path fill-rule="evenodd" clip-rule="evenodd" d="M244.93 101.213C273.717 98.7425 296.834 93.308 296.563 89.0749C296.292 84.8418 272.735 83.4131 243.947 85.8838C215.16 88.3545 192.043 93.789 192.315 98.0221C192.586 102.255 216.143 103.684 244.93 101.213ZM244.958 98.8988C270.353 96.7192 290.786 92.5502 290.596 89.587C290.406 86.6239 269.665 85.9886 244.27 88.1682C218.875 90.3477 198.443 94.5167 198.633 97.4799C198.822 100.443 219.563 101.078 244.958 98.8988Z" fill="#FFD801"/>
<path fill-rule="evenodd" clip-rule="evenodd" d="M246.119 71.9827C274.134 71.9827 296.845 68.6432 296.845 64.5236C296.845 60.404 274.134 57.0645 246.119 57.0645C218.103 57.0645 195.393 60.404 195.393 64.5236C195.393 68.6432 218.103 71.9827 246.119 71.9827ZM246.289 69.7454C271.003 69.7454 291.037 67.4077 291.037 64.524C291.037 61.6403 271.003 59.3026 246.289 59.3026C221.575 59.3026 201.541 61.6403 201.541 64.524C201.541 67.4077 221.575 69.7454 246.289 69.7454Z" fill="#FFD801"/>
<path fill-rule="evenodd" clip-rule="evenodd" d="M248.019 84.3281C277.929 86.8003 302.387 85.3873 302.647 81.172C302.907 76.9568 278.871 71.5355 248.961 69.0633C219.052 66.591 194.594 68.0041 194.334 72.2193C194.073 76.4346 218.109 81.8559 248.019 84.3281ZM248.341 82.0533C274.726 84.2342 296.263 83.6101 296.446 80.6595C296.628 77.7088 275.386 73.5488 249.001 71.3679C222.615 69.1871 201.078 69.8111 200.896 72.7618C200.714 75.7125 221.956 79.8724 248.341 82.0533Z" fill="#FFD801"/>
<circle cx="246.373" cy="70.7051" r="45.3731" fill="#1627F1"/>
<path fill-rule="evenodd" clip-rule="evenodd" d="M238.472 54.556C264.8 54.556 286.143 52.0656 286.143 48.9935C286.143 48.8527 286.098 48.7131 286.01 48.5749C289.244 48.3529 291.746 48.3092 291.746 49.1168C291.746 53.5054 267.552 57.0632 237.706 57.0632C207.861 57.0632 183.667 53.5054 183.667 49.1168C183.667 47.9763 186.227 48.1328 190.304 48.6719C190.297 48.7092 190.294 48.7465 190.294 48.784C190.294 51.8561 212.143 54.556 238.472 54.556Z" fill="#FFD801"/>
<path fill-rule="evenodd" clip-rule="evenodd" d="M244.961 98.9342C270.356 96.7546 290.788 92.5856 290.599 89.6224C290.588 89.4605 290.516 89.3055 290.386 89.1576C293.782 88.6159 296.512 88.2793 296.566 89.1088C296.837 93.3419 273.72 98.7765 244.933 101.247C216.145 103.718 192.588 102.289 192.317 98.0561C192.246 96.9508 194.75 96.8945 198.749 97.0802C198.665 97.2278 198.626 97.3729 198.635 97.5153C198.825 100.478 219.566 101.114 244.961 98.9342Z" fill="#FFD801"/>
<path fill-rule="evenodd" clip-rule="evenodd" d="M246.289 69.7776C271.003 69.7776 291.492 67.2155 291.492 64.3318C291.492 64.2367 291.469 64.1425 291.425 64.0492C294.478 63.8387 296.845 63.7944 296.845 64.5554C296.845 68.675 274.134 72.0146 246.119 72.0146C218.103 72.0146 195.393 68.675 195.393 64.5554C195.393 63.4953 197.75 63.6291 201.512 64.1232C201.725 66.9907 221.708 69.7776 246.289 69.7776Z" fill="#FFD801"/>
<path fill-rule="evenodd" clip-rule="evenodd" d="M248.561 82.0986C274.951 84.2084 296.486 83.5264 296.663 80.5752C296.676 80.3534 296.568 80.1251 296.346 79.8917C299.885 79.9951 302.709 80.1916 302.659 81.0352C302.395 85.4596 278.405 86.4783 248.49 84.0873C218.575 81.6963 194.324 76.7133 194.324 72.1863C194.387 71.1412 196.779 71.408 200.592 72.1579C200.58 72.2014 200.572 72.2455 200.569 72.2903C200.393 75.2414 222.171 79.9887 248.561 82.0986Z" fill="#FFD801"/>
</g>
</svg>
