<svg width="1303" height="356" viewBox="0 0 1303 356" fill="none" xmlns="http://www.w3.org/2000/svg">
<mask id="mask0" mask-type="alpha" maskUnits="userSpaceOnUse" x="0" y="0" width="1303" height="356">
<rect width="1303" height="356" fill="#C4C4C4"/>
</mask>
<g mask="url(#mask0)">
<rect x="3.25879" y="-22.8828" width="1295.74" height="405.814" fill="black" stroke="black" stroke-width="2"/>
<ellipse cx="592.263" cy="42.5248" rx="117.487" ry="118.06" fill="#1627F1"/>
<path fill-rule="evenodd" clip-rule="evenodd" d="M576.163 159.485C590.047 138.284 609.891 95.4263 602.163 98.9008C572.458 112.256 552 120.788 591.602 77.0133C603.167 64.2299 620.767 54.1568 638.838 43.8144C662.551 30.243 687.074 16.2079 699.833 -5.02308C692.152 -22.5449 680.355 -37.8347 665.674 -49.6563C664.871 -48.1832 663.088 -46.7176 660.05 -45.302C645.724 -38.6256 623.939 -19.4467 634.413 -21.3787C640.345 -22.473 645.885 -23.7282 650.717 -24.8229L650.717 -24.823C672.909 -29.8511 680.156 -31.493 641.765 1.40198C632.592 9.26114 620.862 12.2481 606.957 15.7887C576.922 23.4368 536.739 33.6685 490.274 101.17C507.997 132.228 539.366 154.418 576.163 159.485ZM616.902 157.984C669.959 146.607 709.75 99.2352 709.75 42.5248C709.75 34.5014 708.954 26.665 707.436 19.0909C700.137 29.8689 698.046 41.5847 695.241 57.3106C692.959 70.0989 690.204 85.5391 683.791 105.283C678.537 121.455 639.881 162.531 647.071 124.211C649.145 113.158 646.205 83.8364 630.108 127.37C625.822 138.961 621.372 149.244 616.902 157.984ZM507.913 23.9394C499.987 39.9576 494.783 50.4746 475.947 59.2535C475.175 53.7887 474.776 48.2036 474.776 42.5248C474.776 -22.6779 527.377 -75.5352 592.263 -75.5352C609.777 -75.5352 626.395 -71.6844 641.326 -64.7796C628.048 -63.1137 608.605 -47.1064 588.417 -21.3787C563.534 10.3323 566.078 -13.0342 570.32 -21.3787C585.025 -50.309 537.342 -23.8075 528.848 -11.9216C518.477 2.59002 512.699 14.2675 507.913 23.9394Z" fill="#FB2900"/>
<ellipse cx="679.154" cy="105.244" rx="3.67146" ry="3.68937" fill="white"/>
<ellipse cx="622.858" cy="255.279" rx="3.67146" ry="3.68937" fill="white"/>
<ellipse rx="3.67739" ry="3.68346" transform="matrix(-0.816949 0.57671 -0.572965 -0.81958 457.862 151.504)" fill="white"/>
<ellipse rx="3.67739" ry="3.68346" transform="matrix(-0.816949 0.57671 -0.572965 -0.81958 379.538 291.7)" fill="white"/>
<ellipse rx="3.68317" ry="3.67768" transform="matrix(0.58692 -0.809645 0.806918 0.590663 435.313 79.0652)" fill="white"/>
<ellipse rx="3.68317" ry="3.67768" transform="matrix(0.58692 -0.809645 0.806918 0.590663 356.988 246.317)" fill="white"/>
<ellipse rx="3.67658" ry="3.68428" transform="matrix(0.844433 0.535661 -0.531947 0.846778 267.426 333.101)" fill="white"/>
<ellipse cx="662.021" cy="75.7298" rx="1.22382" ry="1.22979" fill="white"/>
<ellipse cx="605.725" cy="225.765" rx="1.22382" ry="1.22979" fill="white"/>
<ellipse rx="1.2258" ry="1.22782" transform="matrix(-0.816949 0.57671 -0.572965 -0.81958 488.768 165.757)" fill="white"/>
<ellipse rx="1.2258" ry="1.22782" transform="matrix(-0.816949 0.57671 -0.572965 -0.81958 410.444 305.955)" fill="white"/>
<ellipse rx="1.22772" ry="1.22589" transform="matrix(0.58692 -0.809645 0.806918 0.590663 401.481 75.607)" fill="white"/>
<ellipse rx="1.22772" ry="1.22589" transform="matrix(0.58692 -0.809645 0.806918 0.590663 323.156 242.859)" fill="white"/>
<ellipse rx="1.22553" ry="1.22809" transform="matrix(0.844433 0.535661 -0.531947 0.846778 268.616 298.95)" fill="white"/>
<ellipse rx="1.22979" ry="1.22383" transform="matrix(-0.0249482 0.999689 -0.999683 -0.025192 8.62479 308.15)" fill="white"/>
<ellipse cx="684.048" cy="85.5677" rx="1.22382" ry="1.22979" fill="white"/>
<ellipse cx="627.753" cy="235.603" rx="1.22382" ry="1.22979" fill="white"/>
<ellipse rx="1.2258" ry="1.22782" transform="matrix(-0.816949 0.57671 -0.572965 -0.81958 465.113 170.431)" fill="white"/>
<ellipse rx="1.2258" ry="1.22782" transform="matrix(-0.816949 0.57671 -0.572965 -0.81958 386.789 310.626)" fill="white"/>
<ellipse rx="1.22772" ry="1.22589" transform="matrix(0.58692 -0.809645 0.806918 0.590663 422.367 63.5055)" fill="white"/>
<ellipse rx="1.22772" ry="1.22589" transform="matrix(0.58692 -0.809645 0.806918 0.590663 344.043 230.757)" fill="white"/>
<ellipse rx="1.22553" ry="1.22809" transform="matrix(0.844433 0.535661 -0.531947 0.846778 282.018 319.087)" fill="white"/>
<ellipse cx="605.725" cy="144.597" rx="1.22382" ry="1.22979" fill="white"/>
<ellipse cx="549.429" cy="294.632" rx="1.22382" ry="1.22979" fill="white"/>
<ellipse cx="527.4" cy="333.986" rx="1.22382" ry="1.22979" fill="white"/>
<ellipse cx="495.58" cy="245.441" rx="1.22382" ry="1.22979" fill="white"/>
<ellipse cx="417.256" cy="267.577" rx="1.22382" ry="1.22979" fill="white"/>
<ellipse cx="453.971" cy="265.117" rx="1.22382" ry="1.22979" fill="white"/>
<ellipse cx="385.437" cy="338.906" rx="1.22382" ry="1.22979" fill="white"/>
<ellipse cx="571.457" cy="348.743" rx="1.22382" ry="1.22979" fill="white"/>
<ellipse cx="615.515" cy="306.931" rx="1.22382" ry="1.22979" fill="white"/>
<ellipse cx="639.991" cy="284.794" rx="1.22382" ry="1.22979" fill="white"/>
<ellipse rx="1.2258" ry="1.22782" transform="matrix(-0.816949 0.57671 -0.572965 -0.81958 495.437 76.8842)" fill="white"/>
<ellipse rx="1.2258" ry="1.22782" transform="matrix(-0.816949 0.57671 -0.572965 -0.81958 417.112 217.083)" fill="white"/>
<ellipse rx="1.22772" ry="1.22589" transform="matrix(0.58692 -0.809645 0.806918 0.590663 423.729 161.879)" fill="white"/>
<ellipse rx="1.22772" ry="1.22589" transform="matrix(0.58692 -0.809645 0.806918 0.590663 345.405 329.13)" fill="white"/>
<ellipse rx="1.22553" ry="1.22809" transform="matrix(0.844433 0.535661 -0.531947 0.846778 184.427 326.985)" fill="white"/>
<ellipse cx="432.254" cy="299.864" rx="55.3827" ry="55.6528" fill="#1627F1"/>
<ellipse cx="430.387" cy="345.513" rx="13.0678" ry="5.62782" fill="#FB2900"/>
<ellipse rx="5.5926" ry="2.39048" transform="matrix(0.475348 -0.879798 0.877851 0.478934 387.852 275.914)" fill="#FB2900"/>
<ellipse rx="8.50001" ry="5.3057" transform="matrix(0.965428 -0.260669 0.258314 0.966061 446.187 344.097)" fill="#FFD801"/>
<ellipse rx="9.59396" ry="8.70975" transform="matrix(0.965428 -0.260669 0.258314 0.966061 460.568 287.019)" fill="#FFD801"/>
<ellipse rx="7.67548" ry="3.92122" transform="matrix(0.729053 -0.684457 0.680909 0.732368 399.448 264.843)" fill="#FFD801"/>
<path fill-rule="evenodd" clip-rule="evenodd" d="M469.705 275.184C472.597 276.2 474.55 274.524 474.066 271.441C473.582 268.358 470.845 265.035 467.953 264.02C465.06 263.004 463.108 264.68 463.591 267.763C464.075 270.846 466.812 274.168 469.705 275.184Z" fill="#FB2900"/>
<path fill-rule="evenodd" clip-rule="evenodd" d="M468.103 297.969C469.434 299.66 471.213 299.405 472.078 297.4C472.942 295.396 472.565 292.401 471.234 290.711C469.903 289.02 468.124 289.275 467.259 291.28C466.395 293.284 466.773 296.279 468.103 297.969Z" fill="#FB2900"/>
<ellipse rx="1.22979" ry="1.22383" transform="matrix(-0.0249482 0.999689 -0.999683 -0.025192 83.4861 311.361)" fill="white"/>
<ellipse cx="556.772" cy="129.839" rx="1.22382" ry="1.22979" fill="white"/>
<ellipse cx="500.475" cy="279.874" rx="1.22382" ry="1.22979" fill="white"/>
<ellipse rx="1.2258" ry="1.22782" transform="matrix(-0.816949 0.57671 -0.572965 -0.81958 543.935 60.685)" fill="white"/>
<ellipse rx="1.2258" ry="1.22782" transform="matrix(-0.816949 0.57671 -0.572965 -0.81958 465.611 200.88)" fill="white"/>
<ellipse rx="1.22772" ry="1.22589" transform="matrix(0.58692 -0.809645 0.806918 0.590663 383.037 192.951)" fill="white"/>
<ellipse rx="1.22553" ry="1.22809" transform="matrix(0.844433 0.535661 -0.531947 0.846778 150.873 288.251)" fill="white"/>
<ellipse rx="1.22979" ry="1.22383" transform="matrix(-0.0249482 0.999689 -0.999683 -0.025192 99.3924 262.558)" fill="white"/>
<ellipse cx="669.363" cy="14.2415" rx="1.22382" ry="1.22979" fill="white"/>
<ellipse cx="613.068" cy="164.275" rx="1.22382" ry="1.22979" fill="white"/>
<ellipse rx="1.2258" ry="1.22782" transform="matrix(-0.816949 0.57671 -0.572965 -0.81958 517.934 220.314)" fill="white"/>
<ellipse rx="1.22772" ry="1.22589" transform="matrix(0.58692 -0.809645 0.806918 0.590663 278.02 200.687)" fill="white"/>
<ellipse rx="1.22553" ry="1.22809" transform="matrix(0.844433 0.535661 -0.531947 0.846778 307.489 250.896)" fill="white"/>
<ellipse rx="1.22979" ry="1.22383" transform="matrix(-0.0249482 0.999689 -0.999683 -0.025192 69.6101 317.072)" fill="white"/>
<ellipse cx="617.963" cy="68.3509" rx="1.22382" ry="1.22979" fill="white"/>
<ellipse cx="561.667" cy="218.386" rx="1.22382" ry="1.22979" fill="white"/>
<ellipse rx="1.2258" ry="1.22782" transform="matrix(-0.816949 0.57671 -0.572965 -0.81958 529.039 146.349)" fill="white"/>
<ellipse rx="1.2258" ry="1.22782" transform="matrix(-0.816949 0.57671 -0.572965 -0.81958 450.716 286.544)" fill="white"/>
<ellipse rx="1.2258" ry="1.22782" transform="matrix(-0.816949 0.57671 -0.572965 -0.81958 459.35 307.415)" fill="white"/>
<ellipse rx="1.2258" ry="1.22782" transform="matrix(-0.816949 0.57671 -0.572965 -0.81958 481.378 295.115)" fill="white"/>
<ellipse rx="1.2258" ry="1.22782" transform="matrix(-0.816949 0.57671 -0.572965 -0.81958 420.186 349.228)" fill="white"/>
<ellipse rx="1.22772" ry="1.22589" transform="matrix(0.58692 -0.809645 0.806918 0.590663 369.606 107.043)" fill="white"/>
<ellipse rx="1.22772" ry="1.22589" transform="matrix(0.58692 -0.809645 0.806918 0.590663 291.281 274.293)" fill="white"/>
<ellipse rx="1.22553" ry="1.22809" transform="matrix(0.844433 0.535661 -0.531947 0.846778 235.283 269.079)" fill="white"/>
<ellipse rx="1.22979" ry="1.22383" transform="matrix(-0.0249482 0.999689 -0.999683 -0.025192 159.033 325.572)" fill="white"/>
<ellipse rx="1.22979" ry="1.22383" transform="matrix(-0.0249482 0.999689 -0.999683 -0.025192 17.0691 264.081)" fill="white"/>
<ellipse cx="693.84" cy="41.2942" rx="1.22382" ry="1.22979" fill="white"/>
<ellipse cx="637.544" cy="191.329" rx="1.22382" ry="1.22979" fill="white"/>
<ellipse rx="1.2258" ry="1.22782" transform="matrix(-0.816949 0.57671 -0.572965 -0.81958 482.429 212.314)" fill="white"/>
<ellipse rx="1.2258" ry="1.22782" transform="matrix(-0.816949 0.57671 -0.572965 -0.81958 404.105 352.509)" fill="white"/>
<ellipse rx="1.22772" ry="1.22589" transform="matrix(0.58692 -0.809645 0.806918 0.590663 454.457 39.3238)" fill="white"/>
<ellipse rx="1.22772" ry="1.22589" transform="matrix(0.58692 -0.809645 0.806918 0.590663 461.8 90.9762)" fill="white"/>
<ellipse rx="1.22772" ry="1.22589" transform="matrix(0.58692 -0.809645 0.806918 0.590663 554.81 179.521)" fill="white"/>
<ellipse rx="1.22772" ry="1.22589" transform="matrix(0.58692 -0.809645 0.806918 0.590663 598.868 199.199)" fill="white"/>
<ellipse rx="1.22772" ry="1.22589" transform="matrix(0.58692 -0.809645 0.806918 0.590663 525.438 174.601)" fill="white"/>
<ellipse rx="1.22772" ry="1.22589" transform="matrix(0.58692 -0.809645 0.806918 0.590663 314.195 196.738)" fill="white"/>
<ellipse rx="1.22772" ry="1.22589" transform="matrix(0.58692 -0.809645 0.806918 0.590663 297.806 130.33)" fill="white"/>
<ellipse rx="1.22772" ry="1.22589" transform="matrix(0.58692 -0.809645 0.806918 0.590663 341.864 154.925)" fill="white"/>
<ellipse rx="1.22772" ry="1.22589" transform="matrix(0.58692 -0.809645 0.806918 0.590663 239.064 228.711)" fill="white"/>
<ellipse rx="1.22772" ry="1.22589" transform="matrix(0.58692 -0.809645 0.806918 0.590663 133.815 204.117)" fill="white"/>
<ellipse rx="1.22772" ry="1.22589" transform="matrix(0.58692 -0.809645 0.806918 0.590663 77.5193 248.39)" fill="white"/>
<ellipse rx="1.22772" ry="1.22589" transform="matrix(0.58692 -0.809645 0.806918 0.590663 16.3289 346.773)" fill="white"/>
<ellipse rx="1.22772" ry="1.22589" transform="matrix(0.58692 -0.809645 0.806918 0.590663 45.7 319.718)" fill="white"/>
<ellipse rx="1.22772" ry="1.22589" transform="matrix(0.58692 -0.809645 0.806918 0.590663 79.9676 351.691)" fill="white"/>
<ellipse rx="1.22772" ry="1.22589" transform="matrix(0.58692 -0.809645 0.806918 0.590663 28.5672 290.203)" fill="white"/>
<ellipse rx="1.22772" ry="1.22589" transform="matrix(0.58692 -0.809645 0.806918 0.590663 195.007 253.308)" fill="white"/>
<ellipse rx="1.22772" ry="1.22589" transform="matrix(0.58692 -0.809645 0.806918 0.590663 212.14 189.359)" fill="white"/>
<ellipse rx="1.22772" ry="1.22589" transform="matrix(0.58692 -0.809645 0.806918 0.590663 439.77 319.718)" fill="white"/>
<ellipse rx="1.22553" ry="1.22809" transform="matrix(0.844433 0.535661 -0.531947 0.846778 313.813 286.901)" fill="white"/>
<ellipse rx="1.22979" ry="1.22383" transform="matrix(-0.0249482 0.999689 -0.999683 -0.025192 42.0818 340.98)" fill="white"/>
<ellipse cx="628.977" cy="128.61" rx="2.44764" ry="2.45958" fill="white"/>
<ellipse cx="572.681" cy="278.645" rx="2.44764" ry="2.45958" fill="white"/>
<ellipse rx="2.45159" ry="2.45564" transform="matrix(-0.816949 0.57671 -0.572965 -0.81958 485.554 103.399)" fill="white"/>
<ellipse rx="2.45159" ry="2.45564" transform="matrix(-0.816949 0.57671 -0.572965 -0.81958 407.23 243.595)" fill="white"/>
<ellipse rx="2.45545" ry="2.45179" transform="matrix(0.58692 -0.809645 0.806918 0.590663 424.562 133.577)" fill="white"/>
<ellipse rx="2.45545" ry="2.45179" transform="matrix(0.58692 -0.809645 0.806918 0.590663 346.237 300.831)" fill="white"/>
<ellipse rx="2.45105" ry="2.45619" transform="matrix(0.844433 0.535661 -0.531947 0.846778 212.584 325.944)" fill="white"/>
<ellipse rx="2.45957" ry="2.44765" transform="matrix(-0.0249482 0.999689 -0.999683 -0.025192 98.8082 335.124)" fill="white"/>
<ellipse cx="643.662" cy="81.8775" rx="2.44764" ry="2.45958" fill="white"/>
<ellipse cx="587.368" cy="231.913" rx="2.44764" ry="2.45958" fill="white"/>
<ellipse rx="2.45159" ry="2.45564" transform="matrix(-0.816949 0.57671 -0.572965 -0.81958 500.271 150.124)" fill="white"/>
<ellipse rx="2.45159" ry="2.45564" transform="matrix(-0.816949 0.57671 -0.572965 -0.81958 421.948 290.319)" fill="white"/>
<ellipse rx="2.45159" ry="2.45564" transform="matrix(-0.816949 0.57671 -0.572965 -0.81958 468.396 323.886)" fill="white"/>
<ellipse rx="2.45545" ry="2.45179" transform="matrix(0.58692 -0.809645 0.806918 0.590663 395.618 94.134)" fill="white"/>
<ellipse rx="2.45545" ry="2.45179" transform="matrix(0.58692 -0.809645 0.806918 0.590663 317.294 261.386)" fill="white"/>
<ellipse rx="2.45105" ry="2.45619" transform="matrix(0.844433 0.535661 -0.531947 0.846778 249.828 294.303)" fill="white"/>
<ellipse rx="2.45957" ry="2.44765" transform="matrix(-0.0249482 0.999689 -0.999683 -0.025192 144.931 351.048)" fill="white"/>
<ellipse rx="2.45957" ry="2.44765" transform="matrix(-0.0249482 0.999689 -0.999683 -0.025192 2.96833 289.557)" fill="white"/>
<ellipse cx="660.796" cy="126.151" rx="2.44764" ry="2.45958" fill="white"/>
<ellipse cx="604.5" cy="276.186" rx="2.44764" ry="2.45958" fill="white"/>
<ellipse rx="2.45159" ry="2.45564" transform="matrix(-0.816949 0.57671 -0.572965 -0.81958 460.924 123.796)" fill="white"/>
<ellipse rx="2.45159" ry="2.45564" transform="matrix(-0.816949 0.57671 -0.572965 -0.81958 382.601 263.991)" fill="white"/>
<ellipse rx="2.45545" ry="2.45179" transform="matrix(0.58692 -0.809645 0.806918 0.590663 441.318 106.284)" fill="white"/>
<ellipse rx="2.45545" ry="2.45179" transform="matrix(0.58692 -0.809645 0.806918 0.590663 362.993 273.536)" fill="white"/>
<ellipse rx="2.45105" ry="2.45619" transform="matrix(0.844433 0.535661 -0.531947 0.846778 240.796 340.932)" fill="white"/>
<ellipse cx="655.901" cy="20.3893" rx="2.44764" ry="2.45958" fill="white"/>
<ellipse cx="599.606" cy="170.422" rx="2.44764" ry="2.45958" fill="white"/>
<ellipse rx="2.45159" ry="2.45564" transform="matrix(-0.816949 0.57671 -0.572965 -0.81958 525.431 207.507)" fill="white"/>
<ellipse rx="2.45159" ry="2.45564" transform="matrix(-0.816949 0.57671 -0.572965 -0.81958 544.272 240.261)" fill="white"/>
<ellipse rx="2.45159" ry="2.45564" transform="matrix(-0.816949 0.57671 -0.572965 -0.81958 573.644 195.987)" fill="white"/>
<ellipse rx="2.45159" ry="2.45564" transform="matrix(-0.816949 0.57671 -0.572965 -0.81958 447.107 347.702)" fill="white"/>
<ellipse rx="2.45545" ry="2.45179" transform="matrix(0.58692 -0.809645 0.806918 0.590663 275.041 215.241)" fill="white"/>
<ellipse rx="2.45105" ry="2.45619" transform="matrix(0.844433 0.535661 -0.531947 0.846778 292.84 248.871)" fill="white"/>
<ellipse rx="2.45957" ry="2.44765" transform="matrix(-0.0249482 0.999689 -0.999683 -0.025192 63.8306 303.393)" fill="white"/>
<ellipse cx="531.072" cy="123.69" rx="2.44764" ry="2.45958" fill="white"/>
<ellipse cx="474.776" cy="273.725" rx="2.44764" ry="2.45958" fill="white"/>
<ellipse cx="489.461" cy="330.296" rx="2.44764" ry="2.45958" fill="white"/>
<ellipse cx="572.681" cy="310.62" rx="2.44764" ry="2.45958" fill="white"/>
<ellipse cx="624.082" cy="325.378" rx="2.44764" ry="2.45958" fill="white"/>
<ellipse rx="2.45159" ry="2.45564" transform="matrix(-0.816949 0.57671 -0.572965 -0.81958 568.483 50.872)" fill="white"/>
<ellipse rx="2.45159" ry="2.45564" transform="matrix(-0.816949 0.57671 -0.572965 -0.81958 490.158 191.069)" fill="white"/>
<ellipse rx="2.45545" ry="2.45179" transform="matrix(0.58692 -0.809645 0.806918 0.590663 362.958 210.206)" fill="white"/>
<ellipse rx="2.45105" ry="2.45619" transform="matrix(0.844433 0.535661 -0.531947 0.846778 132.405 269.264)" fill="white"/>
<ellipse cx="589.815" cy="108.936" rx="2.44764" ry="2.45958" fill="white"/>
<ellipse cx="533.519" cy="258.969" rx="2.44764" ry="2.45958" fill="white"/>
<ellipse rx="2.45159" ry="2.45564" transform="matrix(-0.816949 0.57671 -0.572965 -0.81958 528.857 96.8817)" fill="white"/>
<ellipse rx="2.45159" ry="2.45564" transform="matrix(-0.816949 0.57671 -0.572965 -0.81958 450.532 237.077)" fill="white"/>
<ellipse rx="2.45545" ry="2.45179" transform="matrix(0.58692 -0.809645 0.806918 0.590663 385.673 153.8)" fill="white"/>
<ellipse rx="2.45545" ry="2.45179" transform="matrix(0.58692 -0.809645 0.806918 0.590663 307.35 321.052)" fill="white"/>
<ellipse rx="2.45105" ry="2.45619" transform="matrix(0.844433 0.535661 -0.531947 0.846778 189.922 288.295)" fill="white"/>
<ellipse rx="2.45957" ry="2.44765" transform="matrix(-0.0249482 0.999689 -0.999683 -0.025192 119.367 296.276)" fill="white"/>
<ellipse cx="567.786" cy="148.288" rx="2.44764" ry="2.45958" fill="white"/>
<ellipse cx="511.491" cy="298.323" rx="2.44764" ry="2.45958" fill="white"/>
<ellipse rx="2.45159" ry="2.45564" transform="matrix(-0.816949 0.57671 -0.572965 -0.81958 524.369 51.952)" fill="white"/>
<ellipse rx="2.45159" ry="2.45564" transform="matrix(-0.816949 0.57671 -0.572965 -0.81958 446.045 192.147)" fill="white"/>
<ellipse rx="2.45545" ry="2.45179" transform="matrix(0.58692 -0.809645 0.806918 0.590663 404.36 194.866)" fill="white"/>
<ellipse rx="2.45105" ry="2.45619" transform="matrix(0.844433 0.535661 -0.531947 0.846778 150.387 309.756)" fill="white"/>
<ellipse rx="2.45957" ry="2.44765" transform="matrix(-0.0249482 0.999689 -0.999683 -0.025192 80.7672 273.157)" fill="white"/>
<ellipse cx="168.821" cy="364.73" rx="12.2382" ry="12.2979" fill="#FB2900"/>
<ellipse cx="618.569" cy="206.315" rx="13.9542" ry="14.0222" fill="#FFD801"/>
<path d="M49.2873 342.682C30.7955 339.686 18.2216 322.194 21.2027 303.612C24.1838 285.03 41.5911 272.395 60.083 275.39C78.5748 278.386 91.1487 295.878 88.1676 314.46C85.1864 333.042 67.7792 345.678 49.2873 342.682Z" fill="#FFD801"/>
<path d="M45.4507 341.967C24.8177 337.112 19.3894 317.137 21.0774 304.577C23.4364 287.024 36.9501 277.849 47.9409 275.637C65.1062 272.182 31.6226 283.674 31.483 311.78C31.361 336.362 66.0837 346.823 45.4507 341.967Z" fill="#FB2900"/>
<path fill-rule="evenodd" clip-rule="evenodd" d="M1033.75 222.201C1066.63 181.599 1086.39 141.89 1077.89 133.509C1069.39 125.128 1035.85 151.249 1002.97 191.852C970.091 232.454 950.328 272.163 958.828 280.544C967.329 288.924 1000.87 262.804 1033.75 222.201ZM1028.82 216.305C1057.82 180.487 1077.03 147.793 1071.08 141.927C1065.13 136.06 1036.79 160.34 1007.79 196.158C978.783 231.976 960.094 265.767 966.044 271.634C971.994 277.5 999.816 252.122 1028.82 216.305Z" fill="#FB2900"/>
<ellipse rx="57.9972" ry="58.1244" transform="matrix(0.850426 -0.526094 0.522394 0.852704 1018.46 206.988)" fill="#FFD801"/>
<path fill-rule="evenodd" clip-rule="evenodd" d="M1028.79 216.244C1057.79 180.427 1077.07 147.8 1071.12 141.934C1070.81 141.627 1070.43 141.403 1070 141.258C1073.39 135.974 1076.3 131.939 1077.96 133.577C1086.46 141.957 1066.7 181.666 1033.82 222.268C1000.94 262.871 967.397 288.992 958.897 280.611C956.678 278.423 959.841 275.22 965.424 270.669C965.594 271.049 965.814 271.374 966.084 271.641C972.035 277.507 999.787 252.062 1028.79 216.244Z" fill="#FB2900"/>
<ellipse rx="3.67174" ry="3.6891" transform="matrix(-0.992317 -0.123725 0.122545 -0.992463 687.672 199.461)" fill="white"/>
<ellipse rx="3.67174" ry="3.6891" transform="matrix(-0.992317 -0.123725 0.122545 -0.992463 679.644 293.396)" fill="white"/>
<ellipse rx="3.67174" ry="3.6891" transform="matrix(-0.992317 -0.123725 0.122545 -0.992463 713.367 95.9157)" fill="white"/>
<ellipse rx="3.67174" ry="3.6891" transform="matrix(-0.992317 -0.123725 0.122545 -0.992463 699.413 -2.24058)" fill="white"/>
<ellipse rx="3.67174" ry="3.6891" transform="matrix(-0.992317 -0.123725 0.122545 -0.992463 761.924 57.5329)" fill="white"/>
<ellipse rx="3.67542" ry="3.68543" transform="matrix(0.881872 -0.471489 0.467927 0.883767 912.948 180.934)" fill="white"/>
<ellipse rx="3.67542" ry="3.68543" transform="matrix(0.881872 -0.471489 0.467927 0.883767 1007.86 51.4968)" fill="white"/>
<ellipse rx="3.68101" ry="3.67985" transform="matrix(-0.682065 0.731292 -0.727971 -0.685608 926.451 255.612)" fill="white"/>
<ellipse rx="3.68101" ry="3.67985" transform="matrix(-0.682065 0.731292 -0.727971 -0.685608 1024.67 99.3252)" fill="white"/>
<ellipse rx="3.67867" ry="3.68219" transform="matrix(-0.771929 -0.635708 0.632018 -0.774954 1124.19 24.2825)" fill="white"/>
<ellipse rx="1.22391" ry="1.2297" transform="matrix(-0.992317 -0.123725 0.122545 -0.992463 701.058 230.87)" fill="white"/>
<ellipse rx="1.22391" ry="1.2297" transform="matrix(-0.992317 -0.123725 0.122545 -0.992463 775.31 88.9445)" fill="white"/>
<ellipse rx="1.22514" ry="1.22848" transform="matrix(0.881872 -0.471489 0.467927 0.883767 884.024 162.965)" fill="white"/>
<ellipse rx="1.22514" ry="1.22848" transform="matrix(0.881872 -0.471489 0.467927 0.883767 978.934 33.5276)" fill="white"/>
<ellipse rx="1.227" ry="1.22662" transform="matrix(-0.682065 0.731292 -0.727971 -0.685608 959.602 263.23)" fill="white"/>
<ellipse rx="1.227" ry="1.22662" transform="matrix(-0.682065 0.731292 -0.727971 -0.685608 1057.82 106.943)" fill="white"/>
<ellipse rx="1.22622" ry="1.2274" transform="matrix(-0.771929 -0.635708 0.632018 -0.774954 1118.82 58.0271)" fill="white"/>
<ellipse rx="1.22966" ry="1.22395" transform="matrix(0.147271 -0.989096 0.988885 0.14868 1244.61 2.47744)" fill="white"/>
<ellipse rx="1.22391" ry="1.2297" transform="matrix(-0.992317 -0.123725 0.122545 -0.992463 680.403 218.38)" fill="white"/>
<ellipse rx="1.22391" ry="1.2297" transform="matrix(-0.992317 -0.123725 0.122545 -0.992463 754.656 76.4524)" fill="white"/>
<ellipse rx="1.22514" ry="1.22848" transform="matrix(0.881872 -0.471489 0.467927 0.883767 908.071 161.254)" fill="white"/>
<ellipse rx="1.22514" ry="1.22848" transform="matrix(0.881872 -0.471489 0.467927 0.883767 1002.98 31.8166)" fill="white"/>
<ellipse rx="1.227" ry="1.22662" transform="matrix(-0.682065 0.731292 -0.727971 -0.685608 937.391 272.656)" fill="white"/>
<ellipse rx="1.227" ry="1.22662" transform="matrix(-0.682065 0.731292 -0.727971 -0.685608 1035.61 116.369)" fill="white"/>
<ellipse rx="1.22622" ry="1.2274" transform="matrix(-0.771929 -0.635708 0.632018 -0.774954 1107.99 36.3845)" fill="white"/>
<ellipse rx="1.22391" ry="1.2297" transform="matrix(-0.992317 -0.123725 0.122545 -0.992463 765.364 169.491)" fill="white"/>
<ellipse rx="1.22391" ry="1.2297" transform="matrix(-0.992317 -0.123725 0.122545 -0.992463 839.617 27.5637)" fill="white"/>
<ellipse rx="1.22391" ry="1.2297" transform="matrix(-0.992317 -0.123725 0.122545 -0.992463 887.028 83.0461)" fill="white"/>
<ellipse rx="1.22391" ry="1.2297" transform="matrix(-0.992317 -0.123725 0.122545 -0.992463 967.468 70.7688)" fill="white"/>
<ellipse rx="1.22391" ry="1.2297" transform="matrix(-0.992317 -0.123725 0.122545 -0.992463 930.732 68.6672)" fill="white"/>
<ellipse rx="1.22391" ry="1.2297" transform="matrix(-0.992317 -0.123725 0.122545 -0.992463 1007.78 3.92111)" fill="white"/>
<ellipse rx="1.22391" ry="1.2297" transform="matrix(-0.992317 -0.123725 0.122545 -0.992463 775.542 7.18283)" fill="white"/>
<ellipse rx="1.22391" ry="1.2297" transform="matrix(-0.992317 -0.123725 0.122545 -0.992463 748.538 26.1242)" fill="white"/>
<ellipse rx="1.22514" ry="1.22848" transform="matrix(0.881872 -0.471489 0.467927 0.883767 866.517 250.334)" fill="white"/>
<ellipse rx="1.22514" ry="1.22848" transform="matrix(0.881872 -0.471489 0.467927 0.883767 961.424 120.899)" fill="white"/>
<ellipse rx="1.227" ry="1.22662" transform="matrix(-0.682065 0.731292 -0.727971 -0.685608 948.092 174.863)" fill="white"/>
<ellipse rx="1.227" ry="1.22662" transform="matrix(-0.682065 0.731292 -0.727971 -0.685608 1046.32 18.5759)" fill="white"/>
<ellipse rx="1.22622" ry="1.2274" transform="matrix(-0.771929 -0.635708 0.632018 -0.774954 1205.8 40.6209)" fill="white"/>
<ellipse rx="1.22391" ry="1.2297" transform="matrix(-0.992317 -0.123725 0.122545 -0.992463 812.136 190.195)" fill="white"/>
<ellipse rx="1.22391" ry="1.2297" transform="matrix(-0.992317 -0.123725 0.122545 -0.992463 886.389 48.2688)" fill="white"/>
<ellipse rx="1.22514" ry="1.22848" transform="matrix(0.881872 -0.471489 0.467927 0.883767 816.401 260.41)" fill="white"/>
<ellipse rx="1.22514" ry="1.22848" transform="matrix(0.881872 -0.471489 0.467927 0.883767 911.309 130.973)" fill="white"/>
<ellipse rx="1.227" ry="1.22662" transform="matrix(-0.682065 0.731292 -0.727971 -0.685608 992.283 149.062)" fill="white"/>
<ellipse rx="1.22622" ry="1.2274" transform="matrix(-0.771929 -0.635708 0.632018 -0.774954 1234.36 83.2146)" fill="white"/>
<ellipse rx="1.22391" ry="1.2297" transform="matrix(-0.992317 -0.123725 0.122545 -0.992463 760.49 149.054)" fill="white"/>
<ellipse rx="1.22514" ry="1.22848" transform="matrix(0.881872 -0.471489 0.467927 0.883767 861.767 105.215)" fill="white"/>
<ellipse rx="1.227" ry="1.22662" transform="matrix(-0.682065 0.731292 -0.727971 -0.685608 1097.45 154.379)" fill="white"/>
<ellipse rx="1.22622" ry="1.2274" transform="matrix(-0.771929 -0.635708 0.632018 -0.774954 1074.36 100.906)" fill="white"/>
<ellipse rx="1.22391" ry="1.2297" transform="matrix(-0.992317 -0.123725 0.122545 -0.992463 743.877 243.644)" fill="white"/>
<ellipse rx="1.22391" ry="1.2297" transform="matrix(-0.992317 -0.123725 0.122545 -0.992463 704.822 259.101)" fill="white"/>
<ellipse rx="1.22391" ry="1.2297" transform="matrix(-0.992317 -0.123725 0.122545 -0.992463 650.169 226.382)" fill="white"/>
<ellipse rx="1.22391" ry="1.2297" transform="matrix(-0.992317 -0.123725 0.122545 -0.992463 692.031 143.417)" fill="white"/>
<ellipse rx="1.22391" ry="1.2297" transform="matrix(-0.992317 -0.123725 0.122545 -0.992463 799.013 239.238)" fill="white"/>
<ellipse rx="1.22391" ry="1.2297" transform="matrix(-0.992317 -0.123725 0.122545 -0.992463 730.405 38.2512)" fill="white"/>
<ellipse rx="1.22391" ry="1.2297" transform="matrix(-0.992317 -0.123725 0.122545 -0.992463 766.453 235.73)" fill="white"/>
<ellipse rx="1.22391" ry="1.2297" transform="matrix(-0.992317 -0.123725 0.122545 -0.992463 718.776 295.325)" fill="white"/>
<ellipse rx="1.22391" ry="1.2297" transform="matrix(-0.992317 -0.123725 0.122545 -0.992463 818.129 101.718)" fill="white"/>
<ellipse rx="1.22514" ry="1.22848" transform="matrix(0.881872 -0.471489 0.467927 0.883767 841.682 177.242)" fill="white"/>
<ellipse rx="1.22514" ry="1.22848" transform="matrix(0.881872 -0.471489 0.467927 0.883767 936.588 47.8069)" fill="white"/>
<ellipse rx="1.22514" ry="1.22848" transform="matrix(0.881872 -0.471489 0.467927 0.883767 930.578 26.0276)" fill="white"/>
<ellipse rx="1.22514" ry="1.22848" transform="matrix(0.881872 -0.471489 0.467927 0.883767 907.208 35.5061)" fill="white"/>
<ellipse rx="1.227" ry="1.22662" transform="matrix(-0.682065 0.731292 -0.727971 -0.685608 995.084 235.978)" fill="white"/>
<ellipse rx="1.227" ry="1.22662" transform="matrix(-0.682065 0.731292 -0.727971 -0.685608 1093.31 79.6891)" fill="white"/>
<ellipse rx="1.22622" ry="1.2274" transform="matrix(-0.771929 -0.635708 0.632018 -0.774954 1148.24 91.7947)" fill="white"/>
<ellipse rx="1.22966" ry="1.22395" transform="matrix(0.147271 -0.989096 0.988885 0.14868 1230.83 45.1649)" fill="white"/>
<ellipse rx="1.22391" ry="1.2297" transform="matrix(-0.992317 -0.123725 0.122545 -0.992463 739.514 119.179)" fill="white"/>
<ellipse rx="1.22514" ry="1.22848" transform="matrix(0.881872 -0.471489 0.467927 0.883767 896.02 117.547)" fill="white"/>
<ellipse rx="1.227" ry="1.22662" transform="matrix(-0.682065 0.731292 -0.727971 -0.685608 901.626 240.513)" fill="white"/>
<ellipse rx="1.227" ry="1.22662" transform="matrix(-0.682065 0.731292 -0.727971 -0.685608 820.173 141.134)" fill="white"/>
<ellipse rx="1.227" ry="1.22662" transform="matrix(-0.682065 0.731292 -0.727971 -0.685608 778.86 116.156)" fill="white"/>
<ellipse rx="1.227" ry="1.22662" transform="matrix(-0.682065 0.731292 -0.727971 -0.685608 848.717 149.65)" fill="white"/>
<ellipse rx="1.227" ry="1.22662" transform="matrix(-0.682065 0.731292 -0.727971 -0.685608 1061.06 153.822)" fill="white"/>
<ellipse rx="1.227" ry="1.22662" transform="matrix(-0.682065 0.731292 -0.727971 -0.685608 1069.19 221.752)" fill="white"/>
<ellipse rx="1.227" ry="1.22662" transform="matrix(-0.682065 0.731292 -0.727971 -0.685608 1028.48 191.892)" fill="white"/>
<ellipse rx="1.227" ry="1.22662" transform="matrix(-0.682065 0.731292 -0.727971 -0.685608 1139.54 131.386)" fill="white"/>
<ellipse rx="1.227" ry="1.22662" transform="matrix(-0.682065 0.731292 -0.727971 -0.685608 1240.98 168.818)" fill="white"/>
<ellipse rx="1.227" ry="1.22662" transform="matrix(-0.682065 0.731292 -0.727971 -0.685608 1186.28 112.427)" fill="white"/>
<ellipse rx="1.227" ry="1.22662" transform="matrix(-0.682065 0.731292 -0.727971 -0.685608 1161.44 173.771)" fill="white"/>
<ellipse cx="1209.88" cy="62.002" rx="41.2811" ry="41.4825" fill="#FB2900"/>
<ellipse rx="6.33573" ry="3.95476" transform="matrix(0.965428 -0.260669 0.258314 0.966061 1219.8 95.9073)" fill="#1627F1"/>
<ellipse rx="7.15114" ry="6.49207" transform="matrix(0.965428 -0.260669 0.258314 0.966061 1235.16 49.6303)" fill="#1627F1"/>
<ellipse rx="3.47151" ry="2.12481" transform="matrix(0.998048 0.0624501 -0.0618476 0.998086 1207.44 99.2985)" fill="#1627F1"/>
<ellipse rx="5.72114" ry="2.92279" transform="matrix(0.729053 -0.684457 0.680909 0.732368 1185.89 35.4317)" fill="#1627F1"/>
<ellipse rx="2.79553" ry="1.47049" transform="matrix(0.844296 -0.535877 0.532162 0.846642 1194.47 27.9247)" fill="#1627F1"/>
<ellipse rx="1.227" ry="1.22662" transform="matrix(-0.682065 0.731292 -0.727971 -0.685608 951.515 16.238)" fill="white"/>
<ellipse rx="1.22622" ry="1.2274" transform="matrix(-0.771929 -0.635708 0.632018 -0.774954 1072.49 64.3904)" fill="white"/>
<ellipse rx="2.44782" ry="2.4594" transform="matrix(-0.992317 -0.123725 0.122545 -0.992463 740.33 182.483)" fill="white"/>
<ellipse rx="2.44782" ry="2.4594" transform="matrix(-0.992317 -0.123725 0.122545 -0.992463 814.581 40.5532)" fill="white"/>
<ellipse rx="2.45028" ry="2.45695" transform="matrix(0.881872 -0.471489 0.467927 0.883767 879.571 225.247)" fill="white"/>
<ellipse rx="2.45028" ry="2.45695" transform="matrix(0.881872 -0.471489 0.467927 0.883767 974.479 95.8071)" fill="white"/>
<ellipse rx="2.45401" ry="2.45323" transform="matrix(-0.682065 0.731292 -0.727971 -0.685608 943.798 202.845)" fill="white"/>
<ellipse rx="2.45401" ry="2.45323" transform="matrix(-0.682065 0.731292 -0.727971 -0.685608 1042.02 46.556)" fill="white"/>
<ellipse rx="2.45245" ry="2.45479" transform="matrix(-0.771929 -0.635708 0.632018 -0.774954 1177.73 38.1714)" fill="white"/>
<ellipse rx="2.44782" ry="2.4594" transform="matrix(-0.992317 -0.123725 0.122545 -0.992463 720.031 227.039)" fill="white"/>
<ellipse rx="2.44782" ry="2.4594" transform="matrix(-0.992317 -0.123725 0.122545 -0.992463 794.281 85.1117)" fill="white"/>
<ellipse rx="2.45028" ry="2.45695" transform="matrix(0.881872 -0.471489 0.467927 0.883767 870.692 177.055)" fill="white"/>
<ellipse rx="2.45028" ry="2.45695" transform="matrix(0.881872 -0.471489 0.467927 0.883767 965.6 47.6177)" fill="white"/>
<ellipse rx="2.45028" ry="2.45695" transform="matrix(0.881872 -0.471489 0.467927 0.883767 923.617 8.56101)" fill="white"/>
<ellipse rx="2.45401" ry="2.45323" transform="matrix(-0.682065 0.731292 -0.727971 -0.685608 967.689 245.57)" fill="white"/>
<ellipse rx="2.45401" ry="2.45323" transform="matrix(-0.682065 0.731292 -0.727971 -0.685608 1065.91 89.2826)" fill="white"/>
<ellipse rx="2.45245" ry="2.45479" transform="matrix(-0.771929 -0.635708 0.632018 -0.774954 1136.9 64.9644)" fill="white"/>
<ellipse rx="2.45932" ry="2.4479" transform="matrix(0.147271 -0.989096 0.988885 0.14868 1247.95 21.6307)" fill="white"/>
<ellipse rx="2.44782" ry="2.4594" transform="matrix(-0.992317 -0.123725 0.122545 -0.992463 708.452 180.985)" fill="white"/>
<ellipse rx="2.44782" ry="2.4594" transform="matrix(-0.992317 -0.123725 0.122545 -0.992463 782.703 39.0571)" fill="white"/>
<ellipse rx="2.45028" ry="2.45695" transform="matrix(0.881872 -0.471489 0.467927 0.883767 906.513 208.055)" fill="white"/>
<ellipse rx="2.45028" ry="2.45695" transform="matrix(0.881872 -0.471489 0.467927 0.883767 1001.42 78.6157)" fill="white"/>
<ellipse rx="2.45401" ry="2.45323" transform="matrix(-0.682065 0.731292 -0.727971 -0.685608 923.826 227.857)" fill="white"/>
<ellipse rx="2.45401" ry="2.45323" transform="matrix(-0.682065 0.731292 -0.727971 -0.685608 1022.05 71.5677)" fill="white"/>
<ellipse rx="2.45245" ry="2.45479" transform="matrix(-0.771929 -0.635708 0.632018 -0.774954 1151.57 19.8062)" fill="white"/>
<ellipse rx="2.45932" ry="2.4479" transform="matrix(0.147271 -0.989096 0.988885 0.14868 1294.06 11.1522)" fill="white"/>
<ellipse rx="2.44782" ry="2.4594" transform="matrix(-0.992317 -0.123725 0.122545 -0.992463 774.603 144.622)" fill="white"/>
<ellipse rx="2.45028" ry="2.45695" transform="matrix(0.881872 -0.471489 0.467927 0.883767 852.756 116.997)" fill="white"/>
<ellipse rx="2.45028" ry="2.45695" transform="matrix(0.881872 -0.471489 0.467927 0.883767 838.072 82.1626)" fill="white"/>
<ellipse rx="2.45028" ry="2.45695" transform="matrix(0.881872 -0.471489 0.467927 0.883767 803.499 122.465)" fill="white"/>
<ellipse rx="2.45401" ry="2.45323" transform="matrix(-0.682065 0.731292 -0.727971 -0.685608 1102.19 140.302)" fill="white"/>
<ellipse rx="2.45245" ry="2.45479" transform="matrix(-0.771929 -0.635708 0.632018 -0.774954 1088.64 104.726)" fill="white"/>
<ellipse rx="2.45932" ry="2.4479" transform="matrix(0.147271 -0.989096 0.988885 0.14868 1189.24 0.368949)" fill="white"/>
<ellipse rx="2.44782" ry="2.4594" transform="matrix(-0.992317 -0.123725 0.122545 -0.992463 836.887 199.475)" fill="white"/>
<ellipse rx="2.44782" ry="2.4594" transform="matrix(-0.992317 -0.123725 0.122545 -0.992463 911.141 57.5492)" fill="white"/>
<ellipse rx="2.44782" ry="2.4594" transform="matrix(-0.992317 -0.123725 0.122545 -0.992463 903.498 -0.407785)" fill="white"/>
<ellipse rx="2.44782" ry="2.4594" transform="matrix(-0.992317 -0.123725 0.122545 -0.992463 818.499 8.82268)" fill="white"/>
<ellipse rx="2.44782" ry="2.4594" transform="matrix(-0.992317 -0.123725 0.122545 -0.992463 734.096 3.39886)" fill="white"/>
<ellipse rx="2.44782" ry="2.4594" transform="matrix(-0.992317 -0.123725 0.122545 -0.992463 720.142 59.4887)" fill="white"/>
<ellipse rx="2.44782" ry="2.4594" transform="matrix(-0.992317 -0.123725 0.122545 -0.992463 721.305 144.791)" fill="white"/>
<ellipse rx="2.44782" ry="2.4594" transform="matrix(-0.992317 -0.123725 0.122545 -0.992463 658.511 162.319)" fill="white"/>
<ellipse rx="2.44782" ry="2.4594" transform="matrix(-0.992317 -0.123725 0.122545 -0.992463 689.908 171.666)" fill="white"/>
<ellipse rx="2.44782" ry="2.4594" transform="matrix(-0.992317 -0.123725 0.122545 -0.992463 665.489 261.643)" fill="white"/>
<ellipse rx="2.45028" ry="2.45695" transform="matrix(0.881872 -0.471489 0.467927 0.883767 790.839 267.114)" fill="white"/>
<ellipse rx="2.45028" ry="2.45695" transform="matrix(0.881872 -0.471489 0.467927 0.883767 885.745 137.676)" fill="white"/>
<ellipse rx="2.45401" ry="2.45323" transform="matrix(-0.682065 0.731292 -0.727971 -0.685608 1014.32 134.423)" fill="white"/>
<ellipse rx="2.45245" ry="2.45479" transform="matrix(-0.771929 -0.635708 0.632018 -0.774954 1250.36 104.339)" fill="white"/>
<ellipse rx="2.44782" ry="2.4594" transform="matrix(-0.992317 -0.123725 0.122545 -0.992463 776.784 206.852)" fill="white"/>
<ellipse rx="2.44782" ry="2.4594" transform="matrix(-0.992317 -0.123725 0.122545 -0.992463 851.035 64.9242)" fill="white"/>
<ellipse rx="2.45028" ry="2.45695" transform="matrix(0.881872 -0.471489 0.467927 0.883767 835.802 226.356)" fill="white"/>
<ellipse rx="2.45028" ry="2.45695" transform="matrix(0.881872 -0.471489 0.467927 0.883767 930.707 96.9184)" fill="white"/>
<ellipse rx="2.45401" ry="2.45323" transform="matrix(-0.682065 0.731292 -0.727971 -0.685608 984.868 187.585)" fill="white"/>
<ellipse rx="2.45401" ry="2.45323" transform="matrix(-0.682065 0.731292 -0.727971 -0.685608 1083.09 31.3001)" fill="white"/>
<ellipse rx="2.45245" ry="2.45479" transform="matrix(-0.771929 -0.635708 0.632018 -0.774954 1195.61 78.3374)" fill="white"/>
<ellipse rx="2.45932" ry="2.4479" transform="matrix(0.147271 -0.989096 0.988885 0.14868 1266.61 79.1463)" fill="white"/>
<ellipse rx="2.44782" ry="2.4594" transform="matrix(-0.992317 -0.123725 0.122545 -0.992463 803.467 170.526)" fill="white"/>
<ellipse rx="2.44782" ry="2.4594" transform="matrix(-0.992317 -0.123725 0.122545 -0.992463 877.718 28.5981)" fill="white"/>
<ellipse rx="2.45028" ry="2.45695" transform="matrix(0.881872 -0.471489 0.467927 0.883767 834.746 271.499)" fill="white"/>
<ellipse rx="2.45028" ry="2.45695" transform="matrix(0.881872 -0.471489 0.467927 0.883767 929.656 142.061)" fill="white"/>
<ellipse rx="2.45401" ry="2.45323" transform="matrix(-0.682065 0.731292 -0.727971 -0.685608 971.358 144.523)" fill="white"/>
<ellipse rx="2.45245" ry="2.45479" transform="matrix(-0.771929 -0.635708 0.632018 -0.774954 1237.48 61.9312)" fill="white"/>
<ellipse cx="1103.57" cy="11.79" rx="26.7455" ry="26.876" fill="#1627F1"/>
</g>
</svg>
