<svg width="233" height="285" viewBox="0 0 233 285" fill="none" xmlns="http://www.w3.org/2000/svg">
<path d="M96.9765 257.375L100.523 265.151L161.019 265.151L163.6 255.499L165.933 241.022L168.928 226.599L172.037 211.849L175.409 199.852L176.91 188.45L180.241 177.235L184.009 166.73L187.349 157.687L188.16 150.27L188.723 143.356L192.77 138.861L194.536 135.488L197.352 131.491L199.142 128.27L200.645 122.145L202.077 115.564L203.795 106.612L205.79 93.1175L206.051 85.3182L204.597 82.28L202.171 81.4073L197.695 82.0875L194.277 84.314L190.616 88.1296L189.54 92.7936L188.8 100.666L188.13 108.993L184.201 114.246L181.629 116.654L182.616 112.469L181.909 107.921L181.997 102.165L181.548 94.0084L180.15 88.1683L178.055 79.9511L177.325 75.251L173.443 66.0638L170.282 59.4054L167.505 52.0677L165.274 44.0263L163.764 38.5138L160.836 28.0952L157.51 20.3755L155.878 18.2956L151.755 21.2501L148.817 23.4038L145.978 27.2495L144.352 31.5316L144.561 37.0868L145.22 41.332L138.33 33.8435L132.752 28.4835L124.748 22.2508L115.939 15.0539L112.389 13.2655L110.038 13.9332L108.657 16.6263L106.594 20.1989L105.443 23.3225L106.031 27.1128L107.152 32.2191L109.706 36.0212L113.059 39.7017L116.474 41.6659L121.318 46.5166L125.198 50.4276L127.959 54.5085L130.885 59.6508L134.06 64.2896L140.932 72.712L144.738 80.3589L144.024 84.192L142.284 83.5252L140.6 80.0566L137.435 77.5889L133.292 76.201L121.876 73.2804L111.69 69.8621L102.784 66.2495L96.4642 63.4854L83.6978 60.3043L72.9489 58.5236L66.8694 58.3612L62.2336 59.0658L59.8694 61.753L59.3207 66.6474L61.259 70.6982L66.2395 75.373L73.6365 78.7495L83.337 81.155L90.6347 82.8394L95.1442 84.4819L101.611 89.2413L106.977 93.2367L113.658 95.1698L118.06 98.2255L119.49 101.112L121.622 107.461L123.66 113.204L126.276 120.566L130.307 127.558L132.631 130.929L132.007 134.283L132.112 142.337L133.172 149.16L132.586 155.922L128.37 158.27L123.49 160.564L120.664 162.39L115.601 164.556L109.574 165.783L104.581 168.404L100.627 168.229L94.307 165.465L85.1937 161.573L77.9231 155.85L71.2162 148.489L64.2266 139.308L58.2012 131.068L52.3357 122.803L48.2722 118.764L38.6593 110.603L32.1559 107.712L26.7865 107.907L21.5163 109.795L17.9203 112.979L15.8572 116.552L15.0544 120.864L16.6359 126.832L19.9338 133.314L24.7409 140.033L31.9374 149.492L38.8328 158.066L46.805 167.252L53.9779 176.56L61.1038 185.565L66.0993 193.496L71.1371 200.646L73.6727 205.382L74.5206 210.84L75.4526 214.733L77.3303 220.5L80.2057 229.53L83.3437 236.037L87.3701 241.943L92.0881 249.141L96.9765 257.375Z" fill="white"/>
<path d="M162.748 264.693C162.829 264.169 164.05 256.185 164.413 254.031C164.99 250.602 166.245 243.681 166.902 240.124C167.031 239.424 167.181 238.606 167.345 237.708C168.167 233.215 169.294 227.061 170.028 223.657C170.689 220.596 171.929 215.601 173.023 211.193C173.759 208.229 174.454 205.431 174.924 203.421C175.43 201.26 176.072 198.289 176.752 195.143C177.939 189.649 179.284 183.422 180.303 179.679C180.897 177.495 182.233 173.464 183.117 170.798C183.237 170.437 183.348 170.103 183.446 169.805C183.742 168.912 184.181 167.663 184.646 166.341C185.353 164.329 186.086 162.248 186.496 160.9C187.038 159.124 188.305 154.963 188.644 152.866C188.99 150.72 189.234 146.445 189.127 144.397C189.015 142.257 188.265 138.166 187.798 136.29C187.458 134.924 186.721 132.881 186.007 130.906C185.486 129.461 184.993 128.096 184.702 127.121C183.363 122.639 181.08 113.385 180.413 110.656C179.481 106.845 177.499 98.5275 176.675 94.3256C176.351 92.6738 175.95 90.0926 175.563 87.5967C175.231 85.4586 174.918 83.4393 174.659 82.0363C174.356 80.3865 173.696 77.0826 173.313 75.4499C173.16 74.799 172.995 73.9484 172.82 73.0475C172.271 70.2179 171.586 66.6969 170.497 64.9065C170.3 64.5832 170.045 64.2336 169.738 63.8677C168.365 62.2283 166.147 60.4396 164.002 58.7095C162.482 57.4835 161.047 56.3258 160.149 55.3964C159.602 54.8301 158.917 54.0519 157.992 52.9473C157.369 52.2042 156.702 51.3892 156.057 50.6011C155.411 49.8123 154.743 48.9965 154.119 48.2515C153.191 47.1444 152.501 46.3602 151.946 45.7845C150.85 44.6477 149.034 43.0339 147.277 41.4733C145.682 40.056 144.176 38.7177 143.2 37.7378C142.411 36.945 141.355 35.7362 140.237 34.4563C138.86 32.8796 137.436 31.2494 136.402 30.2786C135.003 28.9662 132.376 26.9335 130.265 25.3005C129.344 24.5887 128.475 23.9163 127.831 23.3993C127.369 23.028 126.764 22.5457 126.105 22.0194C124.623 20.8377 122.78 19.3667 121.73 18.5025C121.319 18.1644 120.781 17.6773 120.211 17.1614C119.042 16.1026 117.716 14.9023 116.763 14.3147C116.644 14.2412 116.507 14.1545 116.358 14.0595C115.178 13.3089 113.395 12.175 112.183 12.4197C111.161 12.626 109.885 13.8739 108.281 16.2344C107.406 17.5227 105.944 20.5816 105.734 22.2561C105.44 24.5971 106.399 29.1039 107.189 31.178C107.809 32.8061 109.692 35.6558 110.836 36.9349C111.876 38.0984 113.828 39.5533 115.715 40.9605C117.051 41.9566 118.314 42.8975 119.114 43.6354C120.7 45.097 123.835 48.2427 125.599 50.3477C125.793 50.5795 125.967 50.7954 126.117 50.9882C126.87 51.9603 127.899 53.7131 128.808 55.2599C129.409 56.2822 129.976 57.2477 130.423 57.9241C131.427 59.4422 133.078 61.7629 134.675 64.0074C135.701 65.4495 136.67 66.8117 137.348 67.795C137.87 68.5527 138.625 69.5077 139.424 70.5185C141.344 72.946 143.733 75.9673 144.293 78.0205C144.95 80.4288 145.104 83.2026 144.207 83.4836C144.117 83.512 143.875 83.5878 143.45 83.0796C143.029 82.5774 142.636 81.7508 142.256 80.9518C141.876 80.1532 141.518 79.3989 141.117 78.9206C141.04 78.8287 140.965 78.751 140.888 78.6835C139.764 77.6908 137.018 76.1325 135.495 75.5044C134.281 75.0037 132.175 74.5283 130.318 74.1093C129.207 73.8585 128.157 73.6216 127.424 73.4085C122.144 71.8776 112.655 68.9643 108.149 67.213C106.996 66.7652 105.405 65.9787 103.72 65.146C101.68 64.1377 99.5694 63.0951 98.0978 62.5919C96.4579 62.0315 93.6391 61.4418 91.1527 60.9215C90.1176 60.7047 89.1395 60.5003 88.4109 60.3298C87.6404 60.1495 86.6217 59.8863 85.5434 59.6073C82.9534 58.9374 80.0181 58.1779 78.1702 57.9358C75.3469 57.566 69.3364 57.2347 66.3441 57.557L66.1369 57.5789C64.3432 57.7685 62.3595 58.0355 61.5218 58.8102C60.177 60.0541 59.8913 63.8212 59.8633 64.2464C59.79 65.354 60.1125 67.6154 60.5929 68.6758C61.0405 69.6628 62.0194 70.8996 62.5633 71.5489C63.4042 72.5531 64.3166 73.493 65.0037 74.0637C66.357 75.1873 69.5352 76.7707 70.936 77.3684C73.0325 78.2634 77.4311 79.5504 79.6614 80.0797C80.7127 80.3291 82.2581 80.5484 83.8945 80.7804C85.568 81.0178 87.2984 81.2631 88.3775 81.535C90.0418 81.9538 92.9423 82.8439 94.1802 83.5112C95.0778 83.9949 96.3641 85.0922 97.499 86.0602C98.2868 86.7321 99.0311 87.367 99.6155 87.7781C100.879 88.667 103.53 90.3171 104.966 91.1438C105.663 91.5446 109.231 93.5825 111.103 94.3611C111.628 94.5795 112.398 94.7858 113.213 95.0047C114.216 95.2739 115.254 95.5521 115.824 95.8514C116.577 96.2458 117.946 97.2662 118.436 97.8926C118.978 98.585 119.58 100.259 119.94 101.26C119.985 101.386 120.027 101.503 120.066 101.608C120.363 102.423 120.719 103.733 121.064 105C121.361 106.09 121.641 107.12 121.88 107.831C122.25 108.93 122.913 110.608 123.552 112.231C123.985 113.326 124.393 114.361 124.665 115.102C124.867 115.655 125.116 116.425 125.379 117.241C125.873 118.775 126.434 120.513 126.92 121.527C127.707 123.171 129.677 126.167 130.733 127.669C130.79 127.749 130.858 127.837 130.941 127.937C131.104 128.131 131.299 128.341 131.507 128.564C131.729 128.803 131.958 129.049 132.159 129.289C132.449 129.635 132.689 130.103 132.689 130.103C132.861 130.643 132.71 131.795 132.6 132.637C132.549 133.023 132.501 133.387 132.484 133.669C132.454 134.169 132.396 134.856 132.335 135.583C132.223 136.926 132.096 138.448 132.091 139.379C132.086 140.323 132.207 141.932 132.303 143.225C132.338 143.691 132.371 144.13 132.393 144.469C132.422 144.934 132.473 145.558 132.527 146.218C132.636 147.557 132.76 149.074 132.77 149.989C132.774 150.352 132.812 150.817 132.853 151.31C132.97 152.71 133.129 154.626 132.572 155.439C132.228 155.941 131.017 156.395 130.044 156.758C129.518 156.955 129.022 157.141 128.672 157.327C128.091 157.636 127.233 158.134 126.403 158.615C125.544 159.114 124.655 159.629 124.065 159.941L123.962 159.996C122.282 160.884 119.154 162.538 117.488 163.175C116.471 163.564 114.615 164.041 113.125 164.425C112.592 164.561 112.089 164.691 111.699 164.797C111.399 164.879 110.985 164.982 110.547 165.091C109.685 165.306 108.707 165.549 108.118 165.749C107.664 165.902 106.481 166.509 106.481 166.509C105.52 167.002 104.431 167.56 103.773 167.582C101.673 167.651 98.1757 166.016 95.6215 164.822C94.9561 164.51 94.328 164.217 93.8145 163.996C90.8803 162.736 85.7316 160.278 83.4717 158.758C81.0929 157.158 76.8238 153.341 74.8754 151.247C74.6358 150.989 74.3695 150.686 74.0833 150.344C72.6183 148.595 70.7894 146.037 69.1758 143.78C68.1472 142.341 67.176 140.982 66.4227 140.006C65.7364 139.117 64.7373 137.872 63.6795 136.553C62.3292 134.87 60.933 133.129 60.0725 131.986C59.2664 130.915 58.2215 129.371 57.1153 127.737C55.4766 125.316 53.619 122.572 52.1799 120.854C52.047 120.695 51.9177 120.545 51.7956 120.408C49.9664 118.356 45.7461 114.601 43.3363 112.739C41.4665 111.295 37.576 108.29 35.209 107.425C33.7293 106.884 30.6298 106.478 29.0669 106.621C27.0209 106.808 22.6817 107.955 20.8031 109.256C19.0165 110.494 16.4756 114.015 15.6482 116.029C15.0036 117.598 15.0417 120.99 15.3508 122.635C15.7879 124.961 19.0349 131.013 19.1732 131.27L19.1917 131.3L24.1189 138.65C24.2241 138.788 34.6616 152.428 38.2457 156.868C38.789 157.541 39.4397 158.329 40.2354 159.279C41.7242 161.057 43.4512 163.077 45.2794 165.216C47.1192 167.369 49.0222 169.595 50.6719 171.565C51.9588 173.102 52.9578 174.321 53.725 175.294C55.9234 178.08 60.213 183.876 62.2252 186.779C63.8076 189.061 66.7593 193.69 68.2488 196.071C68.5514 196.555 68.9484 197.162 69.3688 197.805C70.6809 199.812 72.3138 202.31 72.9547 203.87C73.5204 205.246 73.9886 207.567 74.4413 209.811C74.773 211.457 75.0867 213.011 75.4201 214.089C77.1995 219.843 80.8446 230.146 83.3778 235.041C84.1558 236.544 85.6789 238.671 87.1514 240.728C88.3041 242.338 89.3926 243.858 90.0505 244.974C91.5927 247.589 100.073 262.058 101.223 264.693" stroke="black" stroke-width="2" stroke-miterlimit="10" stroke-linecap="round"/>
<path d="M119.584 263.577C119.089 262.711 118.18 261.657 117.218 260.542C115.704 258.789 113.989 256.801 113.749 255.338" stroke="black" stroke-width="2" stroke-miterlimit="10" stroke-linecap="round"/>
<path d="M161.962 219.712C161.662 217.882 163.043 215.231 164.379 212.666C165.21 211.072 165.995 209.566 166.244 208.48C166.558 207.113 166.666 204.79 166.761 202.74C166.811 201.645 166.859 200.611 166.934 199.848C167.012 199.053 167.201 197.991 167.401 196.867C167.812 194.562 168.277 191.95 168.031 190.453" stroke="black" stroke-width="2" stroke-miterlimit="10" stroke-linecap="round"/>
<path d="M20.31 132.947C20.6144 133.214 23.3209 135.561 24.6686 135.812C25.5334 135.972 27.3844 135.958 28.2692 135.784C29.3755 135.567 31.4754 134.753 32.3786 134.31C34.0804 133.477 36.9309 130.978 37.9244 129.449C38.9105 127.93 39.7178 124.593 39.8185 123.052C39.9188 121.521 39.4348 118.574 38.8601 117.213C38.3824 116.082 37.1088 114.537 35.9852 113.173C35.4992 112.583 35.0397 112.026 34.7283 111.598C34.4727 111.247 34.0935 110.818 33.6921 110.364C32.7879 109.342 31.6629 108.07 31.5211 107.204" stroke="black" stroke-width="2" stroke-miterlimit="10" stroke-linecap="round"/>
<path d="M46.1976 158.779C46.0183 157.687 47.6654 157.28 49.2587 156.888C50.0853 156.684 50.9395 156.473 51.2996 156.218C52.7348 155.2 55.1101 152.652 55.9197 151.261C56.7121 149.901 58.0071 146.738 57.7678 145.277" stroke="black" stroke-width="2" stroke-miterlimit="10" stroke-linecap="round"/>
<path d="M43.7892 152.176C43.6624 151.401 44.6778 150.911 45.6606 150.437C46.1062 150.222 46.5671 150 46.7518 149.821C46.8484 149.728 46.9653 149.619 47.0942 149.499C47.7054 148.93 49.1361 147.597 49.0372 146.995" stroke="black" stroke-width="2" stroke-miterlimit="10" stroke-linecap="round"/>
<path d="M39.7919 148.812C39.7607 148.619 39.814 148.433 39.9425 148.289C40.2608 147.931 40.9024 147.905 41.9233 147.891C42.4537 147.883 43.114 147.874 43.3369 147.757C44.0938 147.359 44.9804 146.294 45.8379 145.265C46.7873 144.126 47.6842 143.05 48.5845 142.576C48.986 142.365 49.6632 142.355 50.3797 142.346C50.8374 142.339 51.6033 142.329 51.7589 142.214" stroke="black" stroke-width="2" stroke-miterlimit="10" stroke-linecap="round"/>
<path d="M145.948 170.422C145.908 170.179 145.867 169.847 145.824 169.496C145.717 168.625 145.596 167.637 145.389 167.051C144.94 165.778 143.643 163.383 142.705 162.317C142.389 161.958 141.804 161.641 141.186 161.305C140.45 160.906 139.534 160.409 139.464 159.983" stroke="black" stroke-width="2" stroke-miterlimit="10" stroke-linecap="round"/>
<path d="M142.825 156.364C142.599 154.987 144.75 154.186 147.027 153.338C148.727 152.705 150.844 151.916 150.718 151.151" stroke="black" stroke-width="2" stroke-miterlimit="10" stroke-linecap="round"/>
<path d="M116.459 167.767C115.788 167.899 111.842 167.737 109.917 167.604C109.508 167.576 108.931 167.629 108.264 167.69C107.525 167.758 106.689 167.835 106.05 167.793C105.801 167.777 105.216 167.714 105.179 167.487" stroke="black" stroke-width="2" stroke-miterlimit="10" stroke-linecap="round"/>
<path d="M132.512 155.709C132.373 154.864 133.541 154.525 134.671 154.196C135.179 154.049 135.755 153.881 135.976 153.718C137.033 152.935 138.89 151.009 139.471 149.962C140.187 148.669 141.097 145.825 140.887 144.544" stroke="black" stroke-width="2" stroke-miterlimit="10" stroke-linecap="round"/>
<path d="M178.605 169.123C178.356 167.606 178.903 164.834 179.343 162.606C179.52 161.711 179.686 160.866 179.778 160.217C179.832 159.835 179.895 159.376 179.964 158.871C180.232 156.898 180.6 154.197 180.926 152.722C181.044 152.185 181.317 151.431 181.606 150.633C182.114 149.231 182.64 147.78 182.625 146.789C182.592 144.494 180.815 140.35 179.959 138.704C179.343 137.516 177.905 135.721 176.75 134.279C176.408 133.851 176.085 133.448 175.837 133.127C175.219 132.324 174.319 131.235 173.366 130.082C171.965 128.388 170.378 126.467 169.514 125.234C167.631 122.551 164.63 117.447 162.439 113.72C161.845 112.709 161.284 111.754 160.825 110.985C159.069 108.038 155.532 101.963 153.817 98.9489C153.33 98.0934 152.673 96.8862 151.978 95.6084C150.918 93.6634 149.718 91.4582 148.922 90.1408C148.571 89.56 147.999 88.8388 147.394 88.0755C146.233 86.6128 144.917 84.9549 144.725 83.7846L143.93 83.9118" stroke="black" stroke-width="2" stroke-miterlimit="10" stroke-linecap="round"/>
<path d="M143.523 132.789C143.322 131.568 141.356 131.603 139.455 131.637C138.613 131.653 137.818 131.667 137.38 131.559C137.063 131.481 136.64 131.417 136.151 131.343C135.05 131.177 133.001 130.867 132.899 130.242" stroke="black" stroke-width="2" stroke-miterlimit="10" stroke-linecap="round"/>
<path d="M119.064 99.3148C118.906 98.3518 120.319 97.9881 121.684 97.6366C122.274 97.4851 122.882 97.3283 123.159 97.1638C123.394 97.0241 123.706 96.8638 124.068 96.6782C125.006 96.1969 126.959 95.1954 126.86 94.5895" stroke="black" stroke-width="2" stroke-miterlimit="10" stroke-linecap="round"/>
<path d="M92.34 82.6816C92.1546 81.5507 93.7974 80.7631 95.3861 80.0014C96.2024 79.6099 97.0465 79.2051 97.3988 78.8503L97.5326 78.7163C98.0811 78.1669 99.5385 76.7077 99.4338 76.069" stroke="black" stroke-width="2" stroke-miterlimit="10" stroke-linecap="round"/>
<path d="M87.0138 60.556C87.037 60.696 86.7759 60.9529 85.9657 61.2161C85.1935 61.4673 84.2025 61.6377 83.4791 61.7624C83.2357 61.8044 83.025 61.8407 82.853 61.8744C82.4367 61.9564 81.8686 62.0782 81.2667 62.207C80.0617 62.4652 78.6961 62.7578 77.8025 62.8958C75.8325 63.2002 72.6291 63.3844 70.7911 63.381C69.233 63.3781 65.9635 62.9341 64.2444 62.6352C64.1257 62.6147 63.9763 62.5917 63.8071 62.5662C63.2742 62.485 62.5442 62.3739 61.9404 62.1988C61.0665 61.9456 61.0201 61.7212 61.0186 61.7119" stroke="black" stroke-width="2" stroke-miterlimit="10" stroke-linecap="round"/>
<path d="M127.967 23.6291C128.014 23.9163 127.908 24.1942 127.669 24.4113C126.722 25.2722 123.536 25.2066 122.605 25.0278C121.69 24.852 120.619 23.9618 119.674 23.176C119.264 22.8339 118.875 22.5112 118.577 22.3154C117.92 21.8848 116.76 21.1622 115.828 20.5819C115.412 20.3231 115.032 20.0859 114.74 19.9028C114.517 19.7625 114.225 19.5817 113.906 19.3843C113.145 18.9139 112.283 18.3811 111.774 18.0369C111.661 17.9609 109.982 16.6913 109.816 16.5897C109.641 16.3304 108.906 16.183 108.837 15.7021" stroke="black" stroke-width="2" stroke-miterlimit="10" stroke-linecap="round"/>
<path d="M135.182 45.1229C135.344 46.1052 133.831 48.2579 132.841 49.3846C132.174 50.1427 130.389 51.432 129.43 51.8483C129.43 51.8483 128.931 51.9028 128.673 51.9075C128.078 51.9182 127.563 51.9278 127.309 52.2155" stroke="black" stroke-width="2" stroke-miterlimit="10" stroke-linecap="round"/>
<path d="M143.999 82.7683C143.796 81.5321 145.775 81.1299 147.689 80.7405C148.519 80.572 149.303 80.4124 149.708 80.2182C150.108 80.0268 150.679 79.8215 151.339 79.5835C152.872 79.0315 155.438 78.1077 155.302 77.2827" stroke="black" stroke-width="2" stroke-miterlimit="10" stroke-linecap="round"/>
<path d="M145.896 40.3527C145.857 40.1163 145.798 39.7819 145.728 39.3855C145.433 37.7109 144.883 34.5941 144.959 33.5507C145.029 32.6016 145.38 30.1948 145.72 29.2669C146.29 27.7166 147.602 25.1752 148.573 24.0063C149.438 22.9665 151.19 21.2431 152.24 20.4931C154.926 18.5753 155.918 18.3673 156.271 18.4137C157.316 18.5518 157.933 20.0453 158.478 21.3629C158.68 21.8535 158.872 22.3165 159.079 22.6954C160.017 24.4054 161.421 29.0626 162.02 31.0512L162.058 31.1775C162.187 31.6046 162.364 32.1496 162.552 32.7263C163.048 34.2527 163.666 36.1526 163.852 37.2835C163.878 37.4432 163.909 37.6518 163.943 37.8798C164.025 38.4311 164.117 39.0556 164.205 39.4358C165.214 43.7666 167.871 52.3217 169.399 56.5178C170.138 58.5486 171.419 61.3843 172.774 64.387C174.229 67.6081 175.733 70.9388 176.503 73.1729C177.712 76.6782 179.513 83.7593 180.273 87.2926C180.877 90.1065 181.83 95.4284 182.046 98.1019C182.126 99.0815 182.084 100.611 182.043 102.09C182.002 103.588 181.96 105.137 182.042 106.156C182.088 106.719 182.256 107.473 182.435 108.271C182.675 109.348 182.949 110.568 182.895 111.302C182.854 111.855 182.408 115.223 182.042 116.06" stroke="black" stroke-width="2" stroke-miterlimit="10" stroke-linecap="round"/>
<path d="M163.206 34.2813C162.217 33.8749 158.941 33.6458 158.487 33.2463C158.202 32.995 156.904 32.3154 156.505 31.9969C155.668 31.3294 155.639 30.9508 155.184 30.3754C154.792 29.8803 154.4 28.6685 154.085 27.6945C153.9 27.126 153.567 26.228 153.567 26.228C153.031 25.0168 152.139 22.1169 151.937 20.8799" stroke="black" stroke-width="2" stroke-miterlimit="10" stroke-linecap="round"/>
<path d="M189.123 144.358C188.921 143.128 190.898 141.188 192.486 139.628C193.3 138.829 194.068 138.075 194.508 137.461L194.541 137.415C195.473 136.112 197.209 133.688 197.943 132.359C198.648 131.083 200.244 127.879 200.682 126.124C200.931 125.126 201.144 123.714 201.351 122.348C201.496 121.389 201.633 120.484 201.771 119.792C202.012 118.592 202.538 116.515 203.003 114.682C203.33 113.392 203.639 112.174 203.828 111.344C204.121 110.063 204.333 107.961 204.519 106.106C204.637 104.943 204.747 103.843 204.865 103.06C205.031 101.958 205.34 100.268 205.639 98.6333C205.92 97.1013 206.21 95.5175 206.371 94.4675C206.424 94.1232 206.497 93.6909 206.574 93.2338C206.863 91.5231 207.222 89.3935 207.204 88.1431C207.179 86.4301 207.013 83.3624 206.179 82.0599C205.839 81.5281 204.788 80.8425 204.167 80.6544C202.546 80.1633 197.214 81.3255 196 82.2546C193.78 83.9557 192.289 86.0116 191.065 87.8048C190.227 89.034 189.773 91.7722 189.53 93.2429L189.508 93.3744C189.335 94.4172 189.285 96.0227 189.237 97.5758C189.202 98.7208 189.169 99.8021 189.089 100.555C189.048 100.933 189.007 101.388 188.962 101.87C188.768 103.987 188.474 107.186 187.826 108.76C187.518 109.509 186.626 110.637 185.84 111.633C185.365 112.233 184.917 112.801 184.629 113.244C184.426 113.555 184.098 113.968 183.75 114.405C182.663 115.772 181.899 116.433 182.088 117.584" stroke="black" stroke-width="2" stroke-miterlimit="10" stroke-linecap="round"/>
<path d="M193.206 107.628C192.641 107.3 191.553 107.473 190.293 107.673C189.594 107.784 188.292 107.991 188.07 107.835C188.075 107.839 188.082 107.848 188.084 107.854" stroke="black" stroke-width="2" stroke-miterlimit="10" stroke-linecap="round"/>
</svg>
