<svg width="27" height="27" viewBox="0 0 27 27" fill="none" xmlns="http://www.w3.org/2000/svg">
<path d="M19.6917 0H7.30879C3.27865 0 0 3.27865 0 7.30879V19.6919C0 23.7218 3.27865 27.0005 7.30879 27.0005H19.6919C23.7218 27.0005 27.0005 23.7218 27.0005 19.6919V7.30879C27.0005 3.27865 23.7218 0 19.6917 0V0ZM25.4176 19.6919C25.4176 22.849 22.849 25.4176 19.6917 25.4176H7.30879C4.15146 25.4176 1.58288 22.849 1.58288 19.6919V7.30879C1.58288 4.15146 4.15146 1.58288 7.30879 1.58288H19.6919C22.849 1.58288 25.4176 4.15146 25.4176 7.30879V19.6919Z" fill="white"/>
<path d="M13.4999 6.11719C9.42901 6.11719 6.11719 9.42901 6.11719 13.4999C6.11719 17.5708 9.42901 20.8827 13.4999 20.8827C17.5708 20.8827 20.8827 17.5708 20.8827 13.4999C20.8827 9.42901 17.5708 6.11719 13.4999 6.11719ZM13.4999 19.2998C10.302 19.2998 7.70007 16.698 7.70007 13.4999C7.70007 10.302 10.302 7.70007 13.4999 7.70007C16.698 7.70007 19.2998 10.302 19.2998 13.4999C19.2998 16.698 16.698 19.2998 13.4999 19.2998Z" fill="white"/>
<path d="M21.0609 3.48926C19.8579 3.48926 18.8794 4.46795 18.8794 5.67077C18.8794 6.87379 19.8579 7.85249 21.0609 7.85249C22.2639 7.85249 23.2426 6.87379 23.2426 5.67077C23.2426 4.46775 22.2639 3.48926 21.0609 3.48926ZM21.0609 6.2694C20.7309 6.2694 20.4623 6.00078 20.4623 5.67077C20.4623 5.34056 20.7309 5.07214 21.0609 5.07214C21.3911 5.07214 21.6597 5.34056 21.6597 5.67077C21.6597 6.00078 21.3911 6.2694 21.0609 6.2694Z" fill="white"/>
</svg>
