<svg width="101" height="101" viewBox="0 0 101 101" fill="none" xmlns="http://www.w3.org/2000/svg">
<circle cx="50.3604" cy="50.3604" r="50.3604" fill="#FFD801"/>
<ellipse cx="48.6635" cy="91.6668" rx="11.8828" ry="5.09262" fill="#FB2900"/>
<ellipse cx="9.98374" cy="28.689" rx="5.06634" ry="2.17129" transform="rotate(-61.5013 9.98374 28.689)" fill="#FB2900"/>
<ellipse cx="63.0281" cy="90.3891" rx="7.72665" ry="4.8027" transform="rotate(-15.0398 63.0281 90.3891)" fill="#1627F1"/>
<ellipse cx="76.1063" cy="38.7347" rx="8.72107" ry="7.88404" transform="rotate(-15.0398 76.1063 38.7347)" fill="#1627F1"/>
<ellipse cx="20.5309" cy="18.667" rx="6.96358" ry="3.55635" transform="rotate(-43.0538 20.5309 18.667)" fill="#1627F1"/>
<path fill-rule="evenodd" clip-rule="evenodd" d="M84.4148 28.0252C87.045 28.9444 88.8207 27.4279 88.3809 24.6381C87.941 21.8482 85.4522 18.8414 82.822 17.9222C80.1918 17.003 78.4161 18.5195 78.856 21.3093C79.2958 24.0992 81.7846 27.106 84.4148 28.0252Z" fill="#1627F1"/>
<path fill-rule="evenodd" clip-rule="evenodd" d="M82.958 48.6488C84.1679 50.1783 85.786 49.9478 86.5721 48.1339C87.3582 46.3201 87.0146 43.6097 85.8047 42.0802C84.5947 40.5507 82.9766 40.7812 82.1905 42.5951C81.4044 44.409 81.748 47.1193 82.958 48.6488Z" fill="#FB2900"/>
</svg>
