<svg width="176" height="121" viewBox="0 0 176 121" fill="none" xmlns="http://www.w3.org/2000/svg">
<path fill-rule="evenodd" clip-rule="evenodd" d="M94.5697 77.8757C135.26 57.6902 165.22 33.4717 161.488 23.7822C157.756 14.0926 121.744 22.6013 81.0541 42.7868C40.3639 62.9723 10.4035 87.1909 14.1357 96.8804C17.868 106.57 53.8795 98.0612 94.5697 77.8757ZM92.7765 71.4357C128.672 53.629 155.666 34.748 153.053 27.9653C150.441 21.1827 119.224 30.1195 83.3288 47.9262C47.4337 65.733 20.4529 85.6666 23.0655 92.4493C25.678 99.232 56.8814 89.2425 92.7765 71.4357Z" fill="#FB2900"/>
<circle cx="87.8979" cy="60.3142" r="50.5029" transform="rotate(-7.13832 87.8979 60.3142)" fill="#1627F1"/>
<path fill-rule="evenodd" clip-rule="evenodd" d="M92.7761 71.4374C128.671 53.6306 155.697 34.8281 153.084 28.0454C152.941 27.6752 152.714 27.3518 152.405 27.0742C157.008 24.1122 160.786 21.9605 161.518 23.8593C165.25 33.5488 135.29 57.7674 94.5993 77.9529C53.9091 98.1384 17.8976 106.647 14.1653 96.9575C13.1908 94.4275 16.854 93.0402 22.9224 91.4638C22.9138 91.8482 22.971 92.2039 23.0963 92.5294C25.7089 99.3121 56.881 89.2442 92.7761 71.4374Z" fill="#FB2900"/>
</svg>
