<svg width="102" height="101" viewBox="0 0 102 101" fill="none" xmlns="http://www.w3.org/2000/svg">
<circle cx="51.0215" cy="50.6387" r="50.3604" fill="#FB2900"/>
<path fill-rule="evenodd" clip-rule="evenodd" d="M44.1219 100.53C50.0733 91.486 58.5782 73.2061 55.2658 74.6881C42.533 80.3852 33.7637 84.0246 50.7391 65.3517C55.6963 59.8987 63.2406 55.6019 70.9866 51.1901C81.1509 45.4011 91.6624 39.4143 97.1315 30.358C93.8393 22.8836 88.7829 16.3612 82.4898 11.3183C82.1458 11.9465 81.3814 12.5715 80.0796 13.1752C73.9385 16.0231 64.6008 24.2042 69.0902 23.38C71.6329 22.9132 74.0077 22.3778 76.0788 21.9108C85.5916 19.766 88.698 19.0656 72.2416 33.0975C68.3099 36.4499 63.2817 37.7241 57.3214 39.2344C44.4466 42.4968 27.2223 46.8614 7.30474 75.6562C14.9024 88.904 28.3486 98.3692 44.1219 100.53ZM61.5846 99.8894C84.3264 95.0354 101.382 74.8288 101.382 50.6387C101.382 47.2169 101.041 43.8749 100.39 40.6447C97.2619 45.242 96.366 50.2394 95.1634 56.9472C94.1854 62.4022 93.0046 68.9885 90.2553 77.4108C88.0035 84.3092 71.4337 101.831 74.5158 85.4845C75.4047 80.7697 74.1444 68.2622 67.2443 86.8321C65.4074 91.7757 63.5005 96.1615 61.5846 99.8894ZM14.8664 42.7112C11.4687 49.5444 9.238 54.0307 1.16295 57.7756C0.832211 55.4442 0.661133 53.0614 0.661133 50.6387C0.661133 22.8254 23.2082 0.27832 51.0215 0.27832C58.5289 0.27832 65.6527 1.92107 72.053 4.86673C66.3616 5.57762 58.0277 12.4057 49.3742 23.38C38.708 36.9069 39.7988 26.9395 41.6169 23.38C47.9202 11.0393 27.4812 22.344 23.8401 27.4141C19.3947 33.6043 16.9178 38.5855 14.8664 42.7112Z" fill="#1627F1"/>
</svg>
