<svg width="102" height="102" viewBox="0 0 102 102" fill="none" xmlns="http://www.w3.org/2000/svg">
<circle cx="50.6156" cy="50.5482" r="50.5482" fill="#FFD801"/>
<path fill-rule="evenodd" clip-rule="evenodd" d="M98.1777 67.5408C93.6719 72.4311 87.8946 77.005 92.8383 67.326C93.3849 66.2559 96.5121 62.5942 100.564 57.9361C100.915 55.5321 101.096 53.0731 101.096 50.5717C101.096 40.4945 98.1477 31.1061 93.0659 23.2222C88.8218 27.4191 84.7148 32.5133 81.0907 37.0085C75.209 44.304 70.5994 50.0217 68.7407 47.7647C67.218 45.9156 72.6532 39.4248 79.2427 31.5557C82.6822 27.4483 86.4361 22.9653 89.6791 18.5709C86.2793 14.4184 82.2315 10.817 77.6901 7.92094C75.4404 8.79592 73.1109 10.0312 70.7979 11.6994C63.995 16.6058 56.8426 23.5863 50.8155 29.4686C44.7164 35.4212 39.7695 40.2492 37.5031 40.6652C26.1483 42.7497 50.6528 21.7609 71.2762 4.4551C64.9511 1.60775 57.9347 0.0234375 50.5482 0.0234375C25.1495 0.0234375 4.12593 18.7559 0.539721 43.1586C2.21269 41.3689 4.14659 39.0619 6.33491 36.0147C9.98958 30.9256 33.9589 5.16931 27.6322 17.556C26.9759 18.8408 21.0265 25.738 13.7812 34.1375L13.7812 34.1376L13.7807 34.1381C9.36717 39.2548 4.47276 44.9289 0.00112124 50.2314C0.000374136 50.3447 0 50.4582 0 50.5717C0 64.3228 5.4909 76.7914 14.3998 85.9046C19.6323 81.3542 24.7743 74.9761 29.1971 69.4902L29.1972 69.4902C35.0789 62.1947 39.6885 56.477 41.5472 58.734C43.0699 60.5831 37.6347 67.0738 31.0452 74.943L31.0451 74.9431C27.0358 79.7311 22.5992 85.0293 19.0425 90.1028C23.3568 93.5457 28.2473 96.2972 33.546 98.1893C35.4987 97.3488 37.5004 96.2342 39.49 94.7993C46.2929 89.8929 53.4453 82.9124 59.4724 77.0301L59.4724 77.0301C65.5716 71.0775 70.5184 66.2495 72.7849 65.8335C83.7495 63.8206 61.2767 83.3227 41.1497 100.248C44.195 100.82 47.3366 101.12 50.5482 101.12C72.5125 101.12 91.2048 87.1111 98.1777 67.5408Z" fill="#FB2900"/>
</svg>
