<svg width="194" height="147" viewBox="0 0 194 147" fill="none" xmlns="http://www.w3.org/2000/svg">
<path fill-rule="evenodd" clip-rule="evenodd" d="M87.6414 51.3464C135.988 51.3464 175.181 45.5832 175.181 38.474C175.181 31.3647 135.988 25.6016 87.6414 25.6016C39.2947 25.6016 0.102051 31.3647 0.102051 38.474C0.102051 45.5832 39.2947 51.3464 87.6414 51.3464ZM87.935 47.4841C130.584 47.4841 165.158 43.4499 165.158 38.4734C165.158 33.497 130.584 29.4627 87.935 29.4627C45.2858 29.4627 10.7118 33.497 10.7118 38.4734C10.7118 43.4499 45.2858 47.4841 87.935 47.4841Z" fill="#1627F1"/>
<path fill-rule="evenodd" clip-rule="evenodd" d="M99.3438 122.92C145.977 118.918 183.424 110.115 182.984 103.257C182.545 96.4001 144.385 94.0858 97.7521 98.0881C51.1193 102.09 13.6722 110.894 14.1118 117.751C14.5513 124.608 52.711 126.923 99.3438 122.92ZM99.389 119.171C140.526 115.641 173.625 108.887 173.318 104.087C173.01 99.2873 139.412 98.2582 98.2748 101.789C57.1375 105.32 24.0385 112.073 24.3462 116.873C24.6539 121.673 58.2517 122.702 99.389 119.171Z" fill="#1627F1"/>
<path fill-rule="evenodd" clip-rule="evenodd" d="M101.268 75.5695C146.65 75.5695 183.439 70.1597 183.439 63.4864C183.439 56.8131 146.65 51.4033 101.268 51.4033C55.886 51.4033 19.0967 56.8131 19.0967 63.4864C19.0967 70.1597 55.886 75.5695 101.268 75.5695ZM101.545 71.9445C141.579 71.9445 174.033 68.1577 174.033 63.4864C174.033 58.8151 141.579 55.0282 101.545 55.0282C61.5112 55.0282 29.0573 58.8151 29.0573 63.4864C29.0573 68.1577 61.5112 71.9445 101.545 71.9445Z" fill="#1627F1"/>
<path fill-rule="evenodd" clip-rule="evenodd" d="M104.347 95.5686C152.798 99.5733 192.417 97.2844 192.839 90.4561C193.26 83.6278 154.324 74.8458 105.873 70.8411C57.422 66.8363 17.8028 69.1253 17.3813 75.9536C16.9598 82.7819 55.8956 91.5638 104.347 95.5686ZM104.87 91.8838C147.611 95.4166 182.499 94.4057 182.794 89.6259C183.089 84.8461 148.68 78.1074 105.938 74.5746C63.1968 71.0418 28.3087 72.0527 28.0137 76.8325C27.7186 81.6123 62.1283 88.351 104.87 91.8838Z" fill="#1627F1"/>
<circle cx="101.681" cy="73.5" r="73.5" fill="#FB2900"/>
<path fill-rule="evenodd" clip-rule="evenodd" d="M88.8796 47.3385C131.529 47.3385 166.103 43.3042 166.103 38.3278C166.103 38.1004 166.031 37.8751 165.889 37.652C171.128 37.2924 175.181 37.2216 175.181 38.5298C175.181 45.6391 135.988 51.4023 87.6414 51.4023C39.2947 51.4023 0.102051 45.6391 0.102051 38.5298C0.102051 36.6825 4.24907 36.9359 10.8524 37.809C10.8422 37.8686 10.837 37.9284 10.837 37.9884C10.837 42.9649 46.2304 47.3385 88.8796 47.3385Z" fill="#1627F1"/>
<path fill-rule="evenodd" clip-rule="evenodd" d="M99.3914 119.228C140.529 115.697 173.628 108.944 173.32 104.144C173.303 103.882 173.188 103.632 172.978 103.393C178.479 102.515 182.901 101.97 182.987 103.314C183.427 110.171 145.98 118.975 99.3471 122.977C52.7143 126.979 14.5547 124.665 14.1151 117.808C14.0004 116.017 18.0548 115.926 24.5315 116.227C24.3958 116.465 24.3339 116.699 24.3486 116.929C24.6563 121.729 58.2541 122.758 99.3914 119.228Z" fill="#1627F1"/>
<path fill-rule="evenodd" clip-rule="evenodd" d="M101.545 71.9988C141.579 71.9988 174.768 67.8485 174.768 63.1772C174.768 63.0232 174.732 62.8705 174.661 62.7193C179.606 62.3784 183.439 62.3067 183.439 63.5394C183.439 70.2127 146.65 75.6225 101.268 75.6225C55.886 75.6225 19.0967 70.2127 19.0967 63.5394C19.0967 61.8221 22.9149 62.0388 29.0096 62.8393C29.3552 67.4843 61.7251 71.9988 101.545 71.9988Z" fill="#1627F1"/>
<path fill-rule="evenodd" clip-rule="evenodd" d="M105.224 91.9544C147.972 95.3721 182.858 94.2673 183.144 89.4867C183.165 89.1282 182.991 88.7593 182.634 88.382C188.365 88.5496 192.94 88.8679 192.858 90.2345C192.43 97.4016 153.569 99.0517 105.11 95.1785C56.6508 91.3054 17.3666 83.2334 17.3665 75.9C17.4676 74.2072 21.3421 74.6392 27.5184 75.8537C27.4982 75.9234 27.4859 75.9941 27.4816 76.0659C27.1962 80.8465 62.4753 88.5367 105.224 91.9544Z" fill="#1627F1"/>
</svg>
